SplineFontDB: 3.0
FontName: CustomFont
FullName: CustomFont
FamilyName: CustomFont
Weight: Bold
Copyright: 
Version: 2.10 May 1, 2012
ItalicAngle: 0
UnderlinePosition: -292
UnderlineWidth: 150
Ascent: 1638
Descent: 410
InvalidEm: 0
sfntRevision: 0x0002199a
LayerCount: 2
Layer: 0 1 "Back" 1
Layer: 1 1 "Fore" 0
XUID: [1021 191 352599025 23621]
StyleMap: 0x0020
FSType: 8
OS2Version: 3
OS2_WeightWidthSlopeOnly: 0
OS2_UseTypoMetrics: 0
CreationTime: 1273845575
ModificationTime: 1558307040
PfmFamily: 17
TTFWeight: 700
TTFWidth: 5
LineGap: 0
VLineGap: 0
Panose: 2 0 5 0 0 0 0 0 0 0
OS2TypoAscent: 1428
OS2TypoAOffset: 0
OS2TypoDescent: -521
OS2TypoDOffset: 0
OS2TypoLinegap: 205
OS2WinAscent: 1695
OS2WinAOffset: 0
OS2WinDescent: 932
OS2WinDOffset: 0
HheadAscent: 1695
HheadAOffset: 0
HheadDescent: -932
HheadDOffset: 0
OS2SubXSize: 1434
OS2SubYSize: 1331
OS2SubXOff: 0
OS2SubYOff: 283
OS2SupXSize: 1434
OS2SupYSize: 1331
OS2SupXOff: 0
OS2SupYOff: 977
OS2StrikeYSize: 102
OS2StrikeYPos: 530
OS2CapHeight: 1434
OS2XHeight: 1024
OS2FamilyClass: 2063
OS2Vendor: 'SST '
OS2CodePages: 20000001.80000000
OS2UnicodeRanges: 800000a7.5000004a.00000000.00000000
MacStyle: 1
Lookup: 258 0 0 "'kern' Horizontal Kerning in Latin lookup 0" { "'kern' Horizontal Kerning in Latin lookup 0 subtable"  } ['kern' ('latn' <'dflt' > ) ]
MarkAttachClasses: 1
DEI: 91125
ShortTable: maxp 16
  1
  0
  236
  155
  5
  0
  0
  0
  0
  0
  0
  0
  0
  0
  0
  0
EndShort
LangName: 1055 "" "" "Kal+ATEA-n"
LangName: 1053 "" "" "Fet"
LangName: 2058 "" "" "Negrita"
LangName: 1034 "" "" "Negrita"
LangName: 3082 "" "" "Negrita"
LangName: 1060 "" "" "Krepko"
LangName: 1051 "" "" "Tu+AQ0A-n+AOkA"
LangName: 1049 "" "" "+BB8EPgQ7BEMENgQ4BEAEPQRLBDkA"
LangName: 1046 "" "" "Negrito"
LangName: 2070 "" "" "Negrito"
LangName: 1045 "" "" "Pogrubiony"
LangName: 1044 "" "" "Halvfet"
LangName: 1040 "" "" "Grassetto"
LangName: 1038 "" "" "F+AOkA-lk+APYA-v+AOkA-r"
LangName: 1032 "" "" "+A4gDvQPEA78DvQOx"
LangName: 1031 "" "" "Fett"

StartChar: exclam
Encoding: 33 33 0
Width: 579
Flags: W
LayerCount: 2
Fore
SplineSet
526 1255 m 1,0,1
 368 735 368 735 297 387 c 0,2,3
 297 382 297 382 293 382 c 0,4,5
 292 382 292 382 289 383 c 0,6,7
 278 383 278 383 249.5 388 c 128,-1,8
 221 393 221 393 207 393 c 0,9,10
 205 393 205 393 187.5 392 c 128,-1,11
 170 391 170 391 162 391 c 0,12,13
 153 391 153 391 153 397 c 0,14,15
 174 582 174 582 204.5 938 c 128,-1,16
 235 1294 235 1294 239 1339 c 0,17,18
 243 1346 243 1346 248 1346 c 2,19,-1
 250 1346 l 1,20,21
 405 1294 405 1294 520 1266 c 0,22,23
 526 1263 526 1263 526 1258 c 2,24,-1
 526 1255 l 1,0,1
338 121 m 0,25,26
 338 66 338 66 291 31 c 128,-1,27
 244 -4 244 -4 186 -4 c 0,28,29
 135 -4 135 -4 93 29.5 c 128,-1,30
 51 63 51 63 51 117 c 0,31,32
 51 180 51 180 93 219 c 128,-1,33
 135 258 135 258 196 258 c 0,34,35
 256 258 256 258 297 219 c 128,-1,36
 338 180 338 180 338 121 c 0,25,26
EndSplineSet
Validated: 1
EndChar

StartChar: quotedbl
Encoding: 34 34 1
Width: 778
Flags: W
LayerCount: 2
Fore
SplineSet
716 1311 m 1,0,-1
 716 1298 l 2,1,2
 716 1245 716 1245 689 1181 c 0,3,4
 657 1108 657 1108 610 1073 c 0,5,6
 552 1034 552 1034 503 1034 c 0,7,8
 492 1034 492 1034 492 1040 c 256,9,10
 492 1046 492 1046 499 1055 c 0,11,12
 536 1094 536 1094 550 1174 c 0,13,14
 551 1176 551 1176 551 1178 c 0,15,16
 551 1182 551 1182 544 1182 c 0,17,18
 438 1184 438 1184 425 1321 c 1,19,-1
 425 1330 l 2,20,21
 425 1372 425 1372 461 1414 c 0,22,23
 501 1460 501 1460 554 1464 c 0,24,25
 562 1465 562 1465 570 1465 c 0,26,27
 631 1465 631 1465 668 1424 c 0,28,29
 710 1378 710 1378 716 1311 c 1,0,-1
345 1280 m 0,30,31
 345 1223 345 1223 308.5 1158.5 c 128,-1,32
 272 1094 272 1094 225 1065 c 0,33,34
 208 1055 208 1055 174 1043 c 0,35,36
 144 1032 144 1032 125 1032 c 2,37,-1
 120 1032 l 2,38,39
 107 1033 107 1033 107 1039 c 0,40,41
 107 1043 107 1043 112 1049 c 0,42,43
 167 1106 167 1106 188 1163 c 0,44,45
 189 1165 189 1165 189 1166 c 0,46,47
 189 1170 189 1170 182 1174 c 1,48,49
 128 1174 128 1174 99.5 1214.5 c 128,-1,50
 71 1255 71 1255 71 1313 c 0,51,52
 71 1358 71 1358 113 1398 c 128,-1,53
 155 1438 155 1438 204 1438 c 0,54,55
 274 1438 274 1438 309.5 1390.5 c 128,-1,56
 345 1343 345 1343 345 1280 c 0,30,31
EndSplineSet
Validated: 1
EndChar

StartChar: numbersign
Encoding: 35 35 2
Width: 1669
Flags: W
LayerCount: 2
Fore
SplineSet
440 491 m 1,0,1
 443 508 443 508 445 524 c 0,2,3
 454 581 454 581 462 633 c 1,4,5
 209 654 209 654 137 654 c 2,6,-1
 132 654 l 2,7,8
 124 657 124 657 124 662 c 2,9,-1
 124 664 l 1,10,11
 134 693 134 693 161 753 c 0,12,13
 186 806 186 806 194 830 c 0,14,15
 198 836 198 836 200 836 c 0,16,17
 244 832 244 832 487 794 c 1,18,19
 523 1026 523 1026 540 1098 c 0,20,21
 540 1099 540 1099 548 1102 c 0,22,23
 573 1102 573 1102 631 1109 c 0,24,25
 696 1116 696 1116 727 1117 c 0,26,27
 735 1116 735 1116 735 1107 c 0,28,29
 712 1041 712 1041 649 769 c 1,30,31
 715 759 715 759 790 746 c 1,32,33
 835 1033 835 1033 854 1114 c 1,34,-1
 854 1115 l 2,35,36
 854 1116 854 1116 862 1119 c 2,37,-1
 868 1119 l 2,38,39
 893 1119 893 1119 945 1125 c 0,40,41
 1009 1132 1009 1132 1041 1134 c 0,42,43
 1048 1132 1048 1132 1048 1123 c 0,44,45
 1022 1049 1022 1049 947 720 c 1,46,47
 1115 693 1115 693 1320 659 c 1,48,-1
 1321 659 l 2,49,50
 1325 659 1325 659 1326 653 c 2,51,-1
 1313 557 l 2,52,53
 1312 551 1312 551 1306 551 c 2,54,-1
 1303 551 l 1,55,56
 1250 556 1250 556 919 590 c 1,57,58
 918 586 918 586 917 582 c 0,59,60
 898 495 898 495 882 419 c 1,61,62
 1032 396 1032 396 1209 366 c 1,63,-1
 1210 366 l 2,64,65
 1214 366 1214 366 1215 359 c 1,66,67
 1215 359 1215 359 1215 359 c 128,-1,69
 1215 359 1215 359 1201 263 c 0,70,71
 1200 257 1200 257 1195 257 c 2,72,-1
 1192 257 l 1,73,74
 1142 262 1142 262 855 292 c 1,75,76
 798 22 798 22 788 -24 c 0,77,78
 786 -31 786 -31 780 -31 c 2,79,-1
 779 -31 l 1,80,81
 687 -15 687 -15 684 -15 c 0,82,83
 679 -11 679 -11 679 -9 c 2,84,-1
 679 -7 l 2,85,86
 680 1 680 1 709 201 c 0,87,88
 717 255 717 255 724 305 c 1,89,90
 655 312 655 312 576 320 c 0,91,92
 563 321 563 321 551 323 c 1,93,94
 485 11 485 11 474 -40 c 0,95,96
 473 -47 473 -47 468 -47 c 2,97,-1
 466 -47 l 1,98,99
 383 -33 383 -33 370 -31 c 0,100,101
 366 -28 366 -28 366 -25 c 2,102,-1
 366 -23 l 2,103,104
 367 -16 367 -16 395 184 c 0,105,106
 406 264 406 264 417 335 c 1,107,108
 116 361 116 361 30 361 c 2,109,-1
 21 361 l 2,110,111
 13 363 13 363 13 368 c 2,112,-1
 13 371 l 1,113,114
 23 400 23 400 50 459 c 0,115,116
 75 513 75 513 82 536 c 0,117,118
 86 542 86 542 88 542 c 0,119,120
 137 539 137 539 440 491 c 1,0,1
615 620 m 1,121,122
 609 594 609 594 603 566 c 0,123,124
 592 515 592 515 583 469 c 1,125,126
 657 456 657 456 744 442 c 1,127,128
 752 493 752 493 758 540 c 0,129,130
 763 574 763 574 768 605 c 1,131,132
 729 609 729 609 687 614 c 0,133,134
 650 617 650 617 615 620 c 1,121,122
EndSplineSet
Validated: 5
EndChar

StartChar: dollar
Encoding: 36 36 3
Width: 864
Flags: W
LayerCount: 2
Fore
SplineSet
749 382 m 0,0,1
 769 335 769 335 769 276 c 0,2,3
 769 144 769 144 649 72 c 0,4,5
 548 11 548 11 416 0 c 1,6,7
 405 -70 405 -70 400 -100 c 0,8,9
 399 -106 399 -106 396 -106 c 0,10,11
 395 -106 395 -106 394 -105 c 0,12,13
 353 -97 353 -97 299 -79 c 1,14,-1
 298 -79 l 2,15,16
 296 -79 296 -79 295 -72 c 0,17,18
 297 -55 297 -55 303 0 c 1,19,20
 172 9 172 9 77 69 c 1,21,-1
 77 70 l 1,22,23
 87 92 87 92 97 119 c 0,24,25
 108 148 108 148 119 184 c 0,26,27
 130 219 130 219 137 236 c 1,28,29
 245 178 245 178 321 162 c 1,30,31
 326 211 326 211 332 266 c 0,32,33
 342 362 342 362 353 462 c 1,34,35
 292 486 292 486 283 490 c 0,36,37
 203 527 203 527 161 601 c 0,38,39
 118 675 118 675 118 767 c 0,40,41
 118 901 118 901 224 987 c 0,42,43
 310 1056 310 1056 424 1070 c 1,44,45
 436 1166 436 1166 444 1209 c 0,46,47
 447 1214 447 1214 450 1215 c 0,48,49
 459 1214 459 1214 473 1214 c 0,50,51
 497 1214 497 1214 534 1217 c 0,52,53
 555 1218 555 1218 577 1221 c 0,54,55
 594 1224 594 1224 604 1224 c 0,56,57
 610 1222 610 1222 610 1218 c 2,58,-1
 610 1215 l 1,59,60
 603 1173 603 1173 586 1061 c 1,61,62
 656 1044 656 1044 718 1005 c 1,63,64
 703 979 703 979 679 929 c 0,65,66
 654 878 654 878 640 849 c 0,67,68
 639 849 639 849 639 850 c 0,69,70
 597 870 597 870 559 881 c 1,71,72
 536 731 536 731 514 592 c 0,73,74
 512 578 512 578 510 563 c 0,75,76
 512 562 512 562 513 561 c 0,77,78
 572 537 572 537 610 515 c 0,79,80
 647 494 647 494 688 460 c 0,81,82
 729 428 729 428 749 382 c 0,0,1
365 619 m 0,83,84
 375 612 375 612 383 605 c 1,85,86
 396 718 396 718 409 828 c 0,87,88
 411 846 411 846 413 864 c 1,89,90
 392 855 392 855 372 842 c 0,91,92
 311 804 311 804 311 736 c 2,93,-1
 311 734 l 2,94,95
 311 697 311 697 322 670 c 0,96,97
 333 642 333 642 365 619 c 0,83,84
529 148 m 0,98,99
 579 182 579 182 579 249 c 2,100,-1
 579 252 l 2,101,102
 579 296 579 296 541 335 c 0,103,104
 520 356 520 356 499 371 c 1,105,106
 479 254 479 254 466 174 c 0,107,108
 460 138 460 138 457 120 c 1,109,110
 501 128 501 128 529 148 c 0,98,99
EndSplineSet
Validated: 1
EndChar

StartChar: percent
Encoding: 37 37 4
Width: 1261
Flags: W
LayerCount: 2
Fore
SplineSet
1009 1042 m 0,0,1
 953 967 953 967 728 567 c 0,2,3
 462 86 462 86 431 31 c 0,4,5
 428 26 428 26 425 26 c 0,6,7
 423 26 423 26 421 27 c 2,8,-1
 335 70 l 2,9,10
 332 73 332 73 332 75 c 256,11,12
 332 77 332 77 333 78 c 0,13,14
 335 84 335 84 418 260 c 128,-1,15
 501 436 501 436 568.5 578.5 c 128,-1,16
 636 721 636 721 714 879.5 c 128,-1,17
 792 1038 792 1038 822 1090 c 0,18,19
 822 1092 822 1092 831 1092 c 0,20,21
 853 1083 853 1083 914.5 1073 c 128,-1,22
 976 1063 976 1063 1005 1055 c 0,23,24
 1010 1052 1010 1052 1010 1046 c 0,25,26
 1010 1044 1010 1044 1009 1042 c 0,0,1
1179 315 m 0,27,28
 1179 182 1179 182 1115.5 94 c 128,-1,29
 1052 6 1052 6 925 6 c 0,30,31
 833 6 833 6 774.5 76.5 c 128,-1,32
 716 147 716 147 716 244 c 0,33,34
 716 373 716 373 775.5 465 c 128,-1,35
 835 557 835 557 955 557 c 0,36,37
 1058 557 1058 557 1118.5 488.5 c 128,-1,38
 1179 420 1179 420 1179 315 c 0,27,28
577 854 m 0,39,40
 577 748 577 748 503 659.5 c 128,-1,41
 429 571 429 571 325 571 c 0,42,43
 216 571 216 571 148.5 656 c 128,-1,44
 81 741 81 741 81 854 c 0,45,46
 81 977 81 977 146.5 1057 c 128,-1,47
 212 1137 212 1137 333 1137 c 0,48,49
 452 1137 452 1137 514.5 1055 c 128,-1,50
 577 973 577 973 577 854 c 0,39,40
1044 301 m 0,51,52
 1044 426 1044 426 962 426 c 0,53,54
 904 426 904 426 878.5 374 c 128,-1,55
 853 322 853 322 853 256 c 0,56,57
 853 211 853 211 877.5 176 c 128,-1,58
 902 141 902 141 943 141 c 0,59,60
 990 141 990 141 1017 195.5 c 128,-1,61
 1044 250 1044 250 1044 301 c 0,51,52
429 887 m 0,62,63
 429 936 429 936 402.5 970 c 128,-1,64
 376 1004 376 1004 327 1004 c 0,65,66
 228 1004 228 1004 228 865 c 0,67,68
 228 725 228 725 321 725 c 0,69,70
 429 725 429 725 429 887 c 0,62,63
EndSplineSet
Validated: 1
EndChar

StartChar: ampersand
Encoding: 38 38 5
Width: 962
Flags: W
LayerCount: 2
Fore
SplineSet
907 420 m 0,0,1
 848 338 848 338 760 211 c 0,2,3
 752 201 752 201 752 195 c 0,4,5
 752 192 752 192 754 190 c 0,6,7
 823 106 823 106 854 66 c 0,8,9
 856 64 856 64 856 61 c 0,10,11
 856 59 856 59 854 57 c 0,12,13
 815 6 815 6 766 -53 c 0,14,15
 763 -56 763 -56 760 -56 c 256,16,17
 757 -56 757 -56 754 -53 c 0,18,19
 702 29 702 29 659 88 c 0,20,21
 656 91 656 91 654 91 c 256,22,23
 652 91 652 91 651 88 c 0,24,25
 522 0 522 0 401 0 c 2,26,-1
 385 0 l 1,27,28
 252 8 252 8 172 87 c 0,29,30
 98 160 98 160 98 281 c 2,31,-1
 98 299 l 1,32,33
 108 444 108 444 262 578 c 0,34,35
 264 580 264 580 265 583 c 2,36,-1
 265 585 l 2,37,38
 265 587 265 587 264 588 c 0,39,40
 215 653 215 653 184 711 c 0,41,42
 132 805 132 805 132 913 c 0,43,44
 132 924 132 924 133 936 c 0,45,46
 139 1059 139 1059 237 1132 c 0,47,48
 327 1198 327 1198 445 1198 c 2,49,-1
 465 1198 l 1,50,51
 590 1192 590 1192 669 1102 c 0,52,53
 738 1022 738 1022 738 916 c 0,54,55
 738 903 738 903 737 889 c 0,56,57
 733 844 733 844 712.5 802 c 128,-1,58
 692 760 692 760 674.5 734.5 c 128,-1,59
 657 709 657 709 608 668 c 128,-1,60
 559 627 559 627 545.5 617.5 c 128,-1,61
 532 608 532 608 473 565 c 0,62,63
 469 564 469 564 469 561 c 256,64,65
 469 558 469 558 471 555 c 0,66,67
 504 506 504 506 512 498 c 0,68,69
 600 387 600 387 643 332 c 0,70,71
 646 329 646 329 648 329 c 0,72,73
 652 329 652 329 655 334 c 0,74,75
 704 426 704 426 768 539 c 0,76,77
 770 544 770 544 773 544 c 0,78,79
 775 544 775 544 778 541 c 0,80,81
 799 524 799 524 847 482 c 128,-1,82
 895 440 895 440 907 430 c 0,83,84
 909 428 909 428 909 426 c 0,85,86
 909 423 909 423 907 420 c 0,0,1
571 881 m 2,87,-1
 571 893 l 2,88,89
 571 943 571 943 543 986 c 0,90,91
 510 1034 510 1034 446 1038 c 1,92,-1
 436 1038 l 2,93,94
 383 1038 383 1038 336 1000 c 0,95,96
 285 958 285 958 282 899 c 2,97,-1
 282 891 l 2,98,99
 282 851 282 851 300 807 c 0,100,101
 319 758 319 758 338.5 731.5 c 128,-1,102
 358 705 358 705 397 655 c 0,103,104
 401 652 401 652 403 652 c 0,105,106
 404 652 404 652 405 653 c 0,107,108
 416 659 416 659 432 672 c 0,109,110
 483 711 483 711 526 768 c 128,-1,111
 569 825 569 825 571 881 c 2,87,-1
547 207 m 1,112,-1
 547 215 l 1,113,114
 510 258 510 258 440.5 350 c 128,-1,115
 371 442 371 442 352 465 c 0,116,117
 350 467 350 467 347 468 c 2,118,-1
 345 468 l 2,119,120
 343 468 343 468 342 467 c 0,121,122
 285 412 285 412 262 369 c 0,123,124
 242 331 242 331 242 276 c 2,125,-1
 242 262 l 2,126,127
 242 205 242 205 285 172 c 128,-1,128
 328 139 328 139 381 137 c 0,129,130
 389 136 389 136 397 136 c 0,131,132
 431 136 431 136 470 150 c 0,133,134
 518 166 518 166 547 207 c 1,112,-1
EndSplineSet
Validated: 1
EndChar

StartChar: quotesingle
Encoding: 39 39 6
Width: 397
Flags: W
LayerCount: 2
Fore
SplineSet
345 1280 m 0,0,1
 345 1223 345 1223 308.5 1158.5 c 128,-1,2
 272 1094 272 1094 225 1065 c 0,3,4
 175 1031 175 1031 133 1031 c 0,5,6
 126 1031 126 1031 120 1032 c 0,7,8
 107 1036 107 1036 107 1041 c 0,9,10
 107 1045 107 1045 112 1049 c 0,11,12
 167 1098 167 1098 188 1161 c 0,13,14
 189 1163 189 1163 189 1165 c 0,15,16
 189 1170 189 1170 182 1174 c 0,17,18
 126 1176 126 1176 98.5 1214.5 c 128,-1,19
 71 1253 71 1253 71 1313 c 0,20,21
 71 1358 71 1358 113 1398 c 128,-1,22
 155 1438 155 1438 204 1438 c 0,23,24
 274 1438 274 1438 309.5 1390.5 c 128,-1,25
 345 1343 345 1343 345 1280 c 0,0,1
EndSplineSet
Validated: 1
EndChar

StartChar: parenleft
Encoding: 40 40 7
Width: 645
Flags: W
LayerCount: 2
Fore
SplineSet
624 1253 m 0,0,1
 625 1250 625 1250 625 1248 c 0,2,3
 625 1243 625 1243 618 1243 c 0,4,5
 456 1186 456 1186 371 982 c 128,-1,6
 286 778 286 778 286 516 c 0,7,8
 286 399 286 399 295.5 313 c 128,-1,9
 305 227 305 227 331.5 134 c 128,-1,10
 358 41 358 41 415.5 -25.5 c 128,-1,11
 473 -92 473 -92 561 -129 c 0,12,13
 565 -129 565 -129 565 -137 c 2,14,-1
 540 -225 l 2,15,16
 537 -230 537 -230 534 -230 c 0,17,18
 532 -230 532 -230 530 -229 c 0,19,20
 399 -182 399 -182 310 -102.5 c 128,-1,21
 221 -23 221 -23 178 81.5 c 128,-1,22
 135 186 135 186 118.5 286.5 c 128,-1,23
 102 387 102 387 102 510 c 0,24,25
 102 807 102 807 243.5 1027 c 128,-1,26
 385 1247 385 1247 600 1327 c 0,27,28
 602 1328 602 1328 604 1328 c 0,29,30
 607 1328 607 1328 610 1323 c 0,31,32
 612 1313 612 1313 617 1287.5 c 128,-1,33
 622 1262 622 1262 624 1253 c 0,0,1
EndSplineSet
Validated: 1
EndChar

StartChar: parenright
Encoding: 41 41 8
Width: 634
Flags: W
LayerCount: 2
Fore
SplineSet
530 567 m 0,0,1
 530 299 530 299 415.5 68.5 c 128,-1,2
 301 -162 301 -162 94 -260 c 0,3,4
 91 -261 91 -261 89 -261 c 0,5,6
 84 -261 84 -261 83 -256 c 0,7,8
 81 -250 81 -250 78 -241.5 c 128,-1,9
 75 -233 75 -233 71 -223 c 128,-1,10
 67 -213 67 -213 65 -207 c 0,11,12
 64 -205 64 -205 64 -203 c 0,13,14
 64 -200 64 -200 69 -197 c 0,15,16
 208 -129 208 -129 283 69.5 c 128,-1,17
 358 268 358 268 358 506 c 0,18,19
 358 627 358 627 344.5 729 c 128,-1,20
 331 831 331 831 297.5 936.5 c 128,-1,21
 264 1042 264 1042 195 1128 c 128,-1,22
 126 1214 126 1214 26 1270 c 0,23,24
 22 1272 22 1272 22 1280 c 2,25,-1
 61 1370 l 2,26,27
 61 1374 61 1374 69 1374 c 0,28,29
 221 1315 221 1315 327.5 1187 c 128,-1,30
 434 1059 434 1059 482 901 c 128,-1,31
 530 743 530 743 530 567 c 0,0,1
EndSplineSet
Validated: 1
EndChar

StartChar: asterisk
Encoding: 42 42 9
Width: 829
Flags: W
LayerCount: 2
Fore
SplineSet
727 845 m 2,0,1
 730 752 l 2,2,3
 730 749 730 749 728 747 c 0,4,5
 727 746 727 746 726 746 c 2,6,-1
 724 746 l 1,7,8
 605 754 605 754 517 754 c 0,9,10
 475 754 475 754 459 753 c 0,11,12
 454 753 454 753 454 749 c 2,13,-1
 454 745 l 1,14,15
 486 685 486 685 608 549 c 0,16,17
 610 548 610 548 610 546 c 256,18,19
 610 544 610 544 608 541 c 2,20,-1
 501 461 l 2,21,22
 499 459 499 459 497 459 c 256,23,24
 495 459 495 459 491 463 c 0,25,26
 392 653 392 653 376 681 c 0,27,28
 373 684 373 684 370 684 c 0,29,30
 369 684 369 684 366 681 c 0,31,32
 228 467 228 467 226 464 c 0,33,34
 225 462 225 462 222 462 c 0,35,36
 220 462 220 462 218 463 c 0,37,38
 158 513 158 513 107 562 c 0,39,40
 106 563 106 563 106 566 c 256,41,42
 106 569 106 569 107 570 c 0,43,44
 253 701 253 701 283 742 c 0,45,46
 284 743 284 743 284 745 c 0,47,48
 284 749 284 749 277 754 c 256,49,50
 270 759 270 759 263 761 c 0,51,52
 196 797 196 797 63 861 c 0,53,54
 60 862 60 862 60 864 c 256,55,56
 60 866 60 866 61 869 c 0,57,58
 109 969 109 969 130 1002 c 0,59,60
 132 1004 132 1004 135 1004 c 0,61,62
 137 1004 137 1004 140 1003 c 0,63,64
 180 968 180 968 321 847 c 0,65,66
 323 846 323 846 325 846 c 2,67,-1
 327 846 l 2,68,69
 329 847 329 847 331 851 c 0,70,71
 349 923 349 923 349 1053 c 0,72,73
 349 1080 349 1080 348 1109 c 0,74,75
 348 1116 348 1116 354 1116 c 0,76,77
 383 1112 383 1112 441 1106 c 0,78,79
 494 1100 494 1100 523 1096 c 0,80,81
 529 1095 529 1095 529 1091 c 0,82,83
 529 1090 529 1090 528 1088 c 0,84,85
 441 848 441 848 441 847 c 2,86,-1
 441 848 l 2,87,88
 440 846 440 846 440 845 c 0,89,90
 440 840 440 840 448 840 c 0,91,92
 566 847 566 847 721 918 c 0,93,94
 722 919 722 919 723 919 c 0,95,96
 725 919 725 919 726 918 c 0,97,98
 728 915 728 915 728 912 c 2,99,-1
 728 879 l 2,100,101
 727 856 727 856 727 845 c 2,0,1
EndSplineSet
Validated: 1
EndChar

StartChar: plus
Encoding: 43 43 10
Width: 874
Flags: W
LayerCount: 2
Fore
SplineSet
806 472 m 0,1,2
 774 470 774 470 532 464 c 0,3,4
 525 464 525 464 525 457 c 2,5,-1
 521 126 l 1,6,-1
 521 123 l 2,7,8
 521 118 521 118 515 118 c 2,9,-1
 347 118 l 2,10,11
 340 118 340 118 338 126 c 0,12,13
 336 189 336 189 328 453 c 0,14,15
 328 460 328 460 319 460 c 2,16,-1
 75 455 l 1,17,-1
 73 455 l 2,18,19
 69 455 69 455 69 462 c 0,20,21
 69 498 69 498 66 570 c 0,22,23
 66 591 66 591 60 655 c 0,24,25
 62 659 62 659 69 663 c 1,26,-1
 313 655 l 2,27,28
 317 657 317 657 319 663 c 0,29,30
 315 787 315 787 306 972 c 0,31,32
 306 993 306 993 319 995 c 0,33,34
 396 1008 396 1008 530 1035 c 0,35,36
 534 1035 534 1035 538 1029 c 1,37,38
 533 840 533 840 527 657 c 0,39,40
 527 651 527 651 534 651 c 2,41,-1
 797 642 l 2,42,43
 806 642 806 642 806 636 c 0,44,45
 808 599 808 599 814 479 c 0,46,0
 814 472 814 472 806 472 c 0,1,2
EndSplineSet
Validated: 1
EndChar

StartChar: comma
Encoding: 44 44 11
Width: 448
Flags: W
LayerCount: 2
Fore
SplineSet
366 145 m 0,0,1
 366 55 366 55 297 -37 c 128,-1,2
 228 -129 228 -129 165 -129 c 0,3,4
 154 -129 154 -129 154 -119 c 0,5,6
 154 -117 154 -117 155 -113 c 0,7,8
 173 -94 173 -94 192 -10 c 0,9,10
 193 -3 193 -3 193 3 c 0,11,12
 193 22 193 22 183 27 c 0,13,14
 134 47 134 47 107.5 86 c 128,-1,15
 81 125 81 125 81 162 c 0,16,17
 81 219 81 219 122 258 c 128,-1,18
 163 297 163 297 220 297 c 0,19,20
 286 297 286 297 326 253 c 128,-1,21
 366 209 366 209 366 145 c 0,0,1
EndSplineSet
Validated: 1
EndChar

StartChar: period
Encoding: 46 46 12
Width: 442
Flags: W
LayerCount: 2
Fore
SplineSet
360 158 m 0,0,1
 360 96 360 96 318 61.5 c 128,-1,2
 276 27 276 27 212 27 c 0,3,4
 159 27 159 27 120 68 c 128,-1,5
 81 109 81 109 81 162 c 0,6,7
 81 221 81 221 123 266 c 128,-1,8
 165 311 165 311 224 311 c 0,9,10
 280 311 280 311 320 263 c 128,-1,11
 360 215 360 215 360 158 c 0,0,1
EndSplineSet
Validated: 1
EndChar

StartChar: slash
Encoding: 47 47 13
Width: 669
Flags: W
LayerCount: 2
Fore
SplineSet
666 1221 m 0,0,1
 614 1128 614 1128 418 647 c 0,2,3
 367 524 367 524 274.5 296 c 128,-1,4
 182 68 182 68 158 6 c 0,5,6
 155 1 155 1 152 1 c 0,7,8
 151 1 151 1 149 2 c 0,9,10
 104 16 104 16 47 41 c 0,11,12
 43 41 43 41 43 49 c 0,13,14
 57 90 57 90 148.5 365.5 c 128,-1,15
 240 641 240 641 330 905 c 128,-1,16
 420 1169 420 1169 453 1247 c 0,17,18
 457 1251 457 1251 461 1251 c 0,19,20
 487 1245 487 1245 557 1240 c 128,-1,21
 627 1235 627 1235 659 1231 c 0,22,23
 667 1228 667 1228 667 1224 c 0,24,25
 667 1223 667 1223 666 1221 c 0,0,1
EndSplineSet
Validated: 1
EndChar

StartChar: zero
Encoding: 48 48 14
Width: 1073
Flags: W
LayerCount: 2
Fore
SplineSet
1001 573 m 0,0,1
 1001 375 1001 375 862.5 208 c 128,-1,2
 724 41 724 41 530 41 c 0,3,4
 325 41 325 41 198 200.5 c 128,-1,5
 71 360 71 360 71 571 c 0,6,7
 71 801 71 801 194 952.5 c 128,-1,8
 317 1104 317 1104 544 1104 c 0,9,10
 767 1104 767 1104 884 950.5 c 128,-1,11
 1001 797 1001 797 1001 573 c 0,0,1
759 643 m 0,12,13
 759 752 759 752 699.5 826.5 c 128,-1,14
 640 901 640 901 532 901 c 0,15,16
 415 901 415 901 364 809 c 128,-1,17
 313 717 313 717 313 594 c 0,18,19
 313 285 313 285 520 285 c 0,20,21
 591 285 591 285 640 317.5 c 128,-1,22
 689 350 689 350 714 406.5 c 128,-1,23
 739 463 739 463 749 520.5 c 128,-1,24
 759 578 759 578 759 643 c 0,12,13
EndSplineSet
Validated: 1
EndChar

StartChar: one
Encoding: 49 49 15
Width: 612
Flags: W
LayerCount: 2
Fore
SplineSet
470 1159 m 0,0,1
 464 1069 464 1069 460 770 c 0,2,3
 456 598 456 598 456 454 c 2,4,-1
 456 360 l 2,5,6
 458 307 458 307 462 195.5 c 128,-1,7
 466 84 466 84 468 29 c 0,8,9
 468 23 468 23 462 23 c 2,10,-1
 218 23 l 2,11,12
 212 23 212 23 212 29 c 0,13,14
 229 391 229 391 235 651 c 0,15,16
 235 682 235 682 236 748.5 c 128,-1,17
 237 815 237 815 239 842 c 0,18,19
 239 850 239 850 234 850 c 0,20,21
 232 850 232 850 229 848 c 0,22,23
 190 831 190 831 128 803 c 0,24,25
 126 802 126 802 124 802 c 0,26,27
 121 802 121 802 118 807 c 0,28,29
 96 893 96 893 75 981 c 0,30,31
 74 982 74 982 74 983 c 0,32,33
 74 985 74 985 75 986 c 0,34,35
 77 989 77 989 79 989 c 0,36,37
 192 1047 192 1047 460 1165 c 0,38,39
 463 1166 463 1166 465 1166 c 0,40,41
 470 1166 470 1166 470 1159 c 0,0,1
EndSplineSet
Validated: 1
EndChar

StartChar: two
Encoding: 50 50 16
Width: 987
Flags: W
LayerCount: 2
Fore
SplineSet
894 829 m 0,0,1
 894 676 894 676 788 549 c 0,2,3
 737 485 737 485 600 401 c 0,4,5
 462 315 462 315 442 285 c 0,6,7
 436 279 436 279 433 270 c 0,8,9
 432 267 432 267 432 265 c 0,10,11
 432 259 432 259 438 256 c 0,12,13
 577 240 577 240 665 223 c 0,14,15
 737 211 737 211 843 176 c 0,16,17
 857 168 857 168 857 161 c 0,18,19
 857 158 857 158 856 156 c 0,20,21
 841 125 841 125 813.5 66.5 c 128,-1,22
 786 8 786 8 770 -23 c 0,23,24
 770 -25 770 -25 767 -26 c 2,25,-1
 764 -26 l 2,26,27
 762 -26 762 -26 761 -25 c 0,28,29
 503 88 503 88 149 109 c 0,30,31
 143 109 143 109 143 117 c 2,32,-1
 143 139 l 2,33,34
 143 199 143 199 188 281 c 0,35,36
 208 317 208 317 246 356 c 128,-1,37
 284 395 284 395 308.5 414.5 c 128,-1,38
 333 434 333 434 395.5 476 c 128,-1,39
 458 518 458 518 469 524 c 0,40,41
 563 590 563 590 613 652.5 c 128,-1,42
 663 715 663 715 663 801 c 0,43,44
 663 874 663 874 616 923.5 c 128,-1,45
 569 973 569 973 495 973 c 0,46,47
 405 973 405 973 339.5 900 c 128,-1,48
 274 827 274 827 245 731 c 0,49,50
 242 726 242 726 240 726 c 256,51,52
 238 726 238 726 237 727 c 0,53,54
 180 739 180 739 69 764 c 0,55,56
 63 764 63 764 63 772 c 0,57,58
 79 842 79 842 102 895 c 0,59,60
 151 1024 151 1024 259.5 1090.5 c 128,-1,61
 368 1157 368 1157 501 1157 c 0,62,63
 653 1157 653 1157 773.5 1068 c 128,-1,64
 894 979 894 979 894 829 c 0,0,1
EndSplineSet
Validated: 1
EndChar

StartChar: three
Encoding: 51 51 17
Width: 927
Flags: W
LayerCount: 2
Fore
SplineSet
897 1122 m 0,0,1
 897 1112 897 1112 887.5 1097.5 c 128,-1,2
 878 1083 878 1083 858 1061 c 2,3,-1
 837 1036 l 1,4,5
 579 702 579 702 514 616 c 0,6,7
 513 613 513 613 513 611 c 0,8,9
 513 607 513 607 518 606 c 0,10,11
 743 522 743 522 743 309 c 0,12,13
 743 158 743 158 637.5 72 c 128,-1,14
 532 -14 532 -14 375 -14 c 0,15,16
 319 -14 319 -14 225 16.5 c 128,-1,17
 131 47 131 47 96 82 c 0,18,19
 94 84 94 84 94 90 c 0,20,21
 110 129 110 129 153 262 c 0,22,23
 156 267 156 267 160 267 c 0,24,25
 162 267 162 267 164 266 c 0,26,27
 268 197 268 197 368 197 c 0,28,29
 432 197 432 197 472 231.5 c 128,-1,30
 512 266 512 266 512 328 c 0,31,32
 512 424 512 424 441 480.5 c 128,-1,33
 370 537 370 537 268 541 c 1,34,-1
 246 541 l 2,35,36
 229 541 229 541 229 549 c 0,37,38
 229 553 229 553 233 559 c 0,39,40
 282 625 282 625 370.5 749.5 c 128,-1,41
 459 874 459 874 500 928 c 0,42,43
 505 933 505 933 505 936 c 0,44,45
 505 940 505 940 493 940 c 0,46,47
 178 911 178 911 168 911 c 0,48,49
 162 911 162 911 162 918 c 0,50,51
 155 944 155 944 140 1014.5 c 128,-1,52
 125 1085 125 1085 114 1124 c 0,53,54
 113 1126 113 1126 113 1128 c 0,55,56
 113 1133 113 1133 121 1133 c 0,57,58
 188 1133 188 1133 311 1134 c 128,-1,59
 434 1135 434 1135 534.5 1136 c 128,-1,60
 635 1137 635 1137 725 1139 c 0,61,62
 749 1139 749 1139 799.5 1141 c 128,-1,63
 850 1143 850 1143 874 1143 c 0,64,65
 897 1143 897 1143 897 1122 c 0,0,1
EndSplineSet
Validated: 1
EndChar

StartChar: four
Encoding: 52 52 18
Width: 956
Flags: W
LayerCount: 2
Fore
SplineSet
862 709 m 0,0,1
 860 688 860 688 853 645 c 2,2,-1
 845 602 l 1,3,4
 823 457 823 457 788 6 c 1,5,-1
 782 0 l 2,6,7
 776 -2 776 -2 710.5 -12.5 c 128,-1,8
 645 -23 645 -23 614 -29 c 0,9,10
 612 -30 612 -30 610 -30 c 0,11,12
 606 -30 606 -30 606 -23 c 0,13,14
 606 41 606 41 614 254 c 0,15,16
 615 256 615 256 615 258 c 0,17,18
 615 262 615 262 608 262 c 0,19,20
 313 244 313 244 34 209 c 0,21,22
 33 208 33 208 31 208 c 256,23,24
 29 208 29 208 27 211 c 0,25,26
 25 213 25 213 25 216 c 0,27,28
 25 217 25 217 26 219 c 0,29,30
 34 238 34 238 100.5 400.5 c 128,-1,31
 167 563 167 563 231.5 718.5 c 128,-1,32
 296 874 296 874 361.5 1028 c 128,-1,33
 427 1182 427 1182 448 1219 c 0,34,35
 451 1224 451 1224 454 1224 c 0,36,37
 456 1224 456 1224 458 1223 c 0,38,39
 501 1206 501 1206 651 1124 c 0,40,41
 655 1123 655 1123 655 1120 c 256,42,43
 655 1117 655 1117 653 1114 c 0,44,45
 563 971 563 971 315 442 c 0,46,47
 313 439 313 439 313 437 c 0,48,49
 313 432 313 432 321 432 c 0,50,51
 587 449 587 449 610 453 c 0,52,53
 616 453 616 453 616 459 c 0,54,55
 620 557 620 557 620 735 c 0,56,57
 620 742 620 742 624 742 c 0,58,59
 626 742 626 742 628 741 c 0,60,61
 651 739 651 739 729.5 730 c 128,-1,62
 808 721 808 721 855 717 c 0,63,64
 862 717 862 717 862 709 c 0,0,1
EndSplineSet
Validated: 1
EndChar

StartChar: five
Encoding: 53 53 19
Width: 897
Flags: W
LayerCount: 2
Fore
SplineSet
807 315 m 0,0,1
 807 186 807 186 708.5 94 c 128,-1,2
 610 2 610 2 440 2 c 0,3,4
 252 2 252 2 96 96 c 0,5,6
 92 96 92 96 92 102 c 0,7,8
 108 193 108 193 110 295 c 0,9,10
 110 302 110 302 117 302 c 0,11,12
 119 302 119 302 123 301 c 0,13,14
 244 233 244 233 311.5 209.5 c 128,-1,15
 379 186 379 186 469 186 c 0,16,17
 516 186 516 186 554 220 c 128,-1,18
 592 254 592 254 592 301 c 0,19,20
 592 375 592 375 553 427 c 128,-1,21
 514 479 514 479 454.5 501.5 c 128,-1,22
 395 524 395 524 348 532.5 c 128,-1,23
 301 541 301 541 260 541 c 0,24,25
 205 541 205 541 188 539 c 0,26,27
 185 538 185 538 182 538 c 0,28,29
 177 538 177 538 176 541 c 0,30,31
 174 545 174 545 174 555 c 0,32,33
 174 561 174 561 173 581.5 c 128,-1,34
 172 602 172 602 172 610 c 0,35,36
 170 682 170 682 155.5 849 c 128,-1,37
 141 1016 141 1016 139 1106 c 0,38,39
 139 1112 139 1112 147 1112 c 0,40,41
 751 1147 751 1147 768 1147 c 0,42,43
 776 1147 776 1147 776 1139 c 0,44,45
 766 1087 766 1087 723 932 c 0,46,47
 719 928 719 928 715 928 c 0,48,49
 432 940 432 940 373 940 c 0,50,51
 364 940 364 940 364 932 c 0,52,53
 366 891 366 891 368.5 819.5 c 128,-1,54
 371 748 371 748 373 705 c 0,55,56
 373 698 373 698 379 698 c 0,57,58
 586 672 586 672 696.5 562.5 c 128,-1,59
 807 453 807 453 807 315 c 0,0,1
EndSplineSet
Validated: 1
EndChar

StartChar: six
Encoding: 54 54 20
Width: 1017
Flags: W
LayerCount: 2
Fore
SplineSet
917 373 m 0,0,1
 917 186 917 186 798.5 85 c 128,-1,2
 680 -16 680 -16 495 -16 c 0,3,4
 313 -16 313 -16 202.5 97.5 c 128,-1,5
 92 211 92 211 92 393 c 0,6,7
 92 690 92 690 242.5 911.5 c 128,-1,8
 393 1133 393 1133 665 1249 c 0,9,10
 674 1249 674 1249 674 1245 c 0,11,12
 704 1192 704 1192 776 1038 c 0,13,14
 777 1035 777 1035 777 1034 c 0,15,16
 777 1030 777 1030 772 1030 c 0,17,18
 670 989 670 989 620 963 c 0,19,20
 541 920 541 920 459 830.5 c 128,-1,21
 377 741 377 741 346 643 c 0,22,23
 345 641 345 641 345 639 c 0,24,25
 345 636 345 636 348 634 c 0,26,27
 350 633 350 633 351 633 c 0,28,29
 354 633 354 633 356 635 c 0,30,31
 465 725 465 725 584 725 c 0,32,33
 733 725 733 725 825 624.5 c 128,-1,34
 917 524 917 524 917 373 c 0,0,1
702 356 m 0,35,36
 702 428 702 428 661 480 c 128,-1,37
 620 532 620 532 545 532 c 0,38,39
 459 532 459 532 389 470 c 128,-1,40
 319 408 319 408 319 322 c 0,41,42
 319 250 319 250 378.5 198.5 c 128,-1,43
 438 147 438 147 506 147 c 0,44,45
 602 147 602 147 652 204.5 c 128,-1,46
 702 262 702 262 702 356 c 0,35,36
EndSplineSet
Validated: 1
EndChar

StartChar: seven
Encoding: 55 55 21
Width: 819
Flags: W
LayerCount: 2
Fore
SplineSet
760 1124 m 0,0,1
 717 934 717 934 646 566.5 c 128,-1,2
 575 199 575 199 532 18 c 1,3,-1
 526 12 l 1,4,5
 495 4 495 4 451 -5 c 128,-1,6
 407 -14 407 -14 360 -23.5 c 128,-1,7
 313 -33 313 -33 299 -35 c 0,8,9
 291 -35 291 -35 291 -27 c 0,10,11
 430 580 430 580 489 883 c 1,12,-1
 489 886 l 2,13,14
 489 891 489 891 483 891 c 0,15,16
 467 891 467 891 100 874 c 0,17,18
 99 873 99 873 98 873 c 256,19,20
 97 873 97 873 96 875 c 0,21,22
 94 877 94 877 94 879 c 0,23,24
 65 1038 65 1038 57 1092 c 0,25,26
 56 1094 56 1094 56 1096 c 0,27,28
 56 1100 56 1100 63 1100 c 0,29,30
 86 1102 86 1102 373.5 1113 c 128,-1,31
 661 1124 661 1124 751 1133 c 0,32,33
 752 1134 752 1134 754 1134 c 256,34,35
 756 1134 756 1134 758 1132 c 0,36,37
 760 1128 760 1128 760 1124 c 0,0,1
EndSplineSet
Validated: 1
EndChar

StartChar: eight
Encoding: 56 56 22
Width: 1011
Flags: W
LayerCount: 2
Fore
SplineSet
960 1028 m 0,0,1
 917 950 917 950 889 899 c 0,2,3
 790 731 790 731 653 596 c 0,4,5
 651 594 651 594 651 591 c 256,6,7
 651 588 651 588 655 584 c 0,8,9
 659 582 659 582 691 557 c 128,-1,10
 723 532 723 532 728 528 c 128,-1,11
 733 524 733 524 759.5 502.5 c 128,-1,12
 786 481 786 481 792.5 473 c 128,-1,13
 799 465 799 465 817 444.5 c 128,-1,14
 835 424 835 424 840.5 408.5 c 128,-1,15
 846 393 846 393 855 371.5 c 128,-1,16
 864 350 864 350 867 326.5 c 128,-1,17
 870 303 870 303 870 276 c 0,18,19
 870 145 870 145 763.5 67.5 c 128,-1,20
 657 -10 657 -10 522 -10 c 0,21,22
 428 -10 428 -10 344 14.5 c 128,-1,23
 260 39 260 39 195.5 105.5 c 128,-1,24
 131 172 131 172 131 270 c 0,25,26
 131 362 131 362 175 419.5 c 128,-1,27
 219 477 219 477 317 551 c 0,28,29
 324 553 324 553 324 556 c 0,30,31
 324 558 324 558 317 561 c 0,32,33
 203 637 203 637 147.5 704.5 c 128,-1,34
 92 772 92 772 92 881 c 0,35,36
 92 1008 92 1008 190.5 1084.5 c 128,-1,37
 289 1161 289 1161 420 1161 c 256,38,39
 551 1161 551 1161 731 1040 c 0,40,41
 732 1039 732 1039 734 1039 c 2,42,-1
 736 1039 l 2,43,44
 739 1040 739 1040 741 1042 c 0,45,46
 756 1065 756 1065 775 1106 c 128,-1,47
 794 1147 794 1147 803 1161 c 0,48,49
 806 1164 806 1164 809 1164 c 0,50,51
 811 1164 811 1164 813 1163 c 0,52,53
 883 1114 883 1114 952 1057 c 0,54,55
 963 1049 963 1049 963 1039 c 0,56,57
 963 1034 963 1034 960 1028 c 0,0,1
653 877 m 0,58,59
 655 880 655 880 655 883 c 256,60,61
 655 886 655 886 651 887 c 0,62,63
 541 961 541 961 450 961 c 0,64,65
 317 961 317 961 317 844 c 0,66,67
 317 788 317 788 366.5 741 c 128,-1,68
 416 694 416 694 479 666 c 0,69,70
 482 665 482 665 484 665 c 0,71,72
 490 665 490 665 495 668 c 0,73,74
 526 692 526 692 584 764 c 0,75,76
 602 788 602 788 653 877 c 0,58,59
667 289 m 0,77,78
 667 307 667 307 662 324.5 c 128,-1,79
 657 342 657 342 651 354.5 c 128,-1,80
 645 367 645 367 629.5 382 c 128,-1,81
 614 397 614 397 607 405.5 c 128,-1,82
 600 414 600 414 578.5 427 c 128,-1,83
 557 440 557 440 552 444.5 c 128,-1,84
 547 449 547 449 524 463 c 2,85,-1
 500 475 l 1,86,-1
 483 475 l 1,87,88
 440 465 440 465 382.5 407.5 c 128,-1,89
 325 350 325 350 325 303 c 0,90,91
 325 248 325 248 382.5 214 c 128,-1,92
 440 180 440 180 500 180 c 0,93,94
 555 180 555 180 611 210 c 128,-1,95
 667 240 667 240 667 289 c 0,77,78
EndSplineSet
Validated: 1
EndChar

StartChar: nine
Encoding: 57 57 23
Width: 1030
Flags: W
LayerCount: 2
Fore
SplineSet
927 700 m 0,0,1
 927 279 927 279 558 -115 c 0,2,3
 556 -117 556 -117 550 -117 c 0,4,5
 538 -109 538 -109 470.5 -58.5 c 128,-1,6
 403 -8 403 -8 386 4 c 0,7,8
 383 7 383 7 383 10 c 0,9,10
 383 12 383 12 386 14 c 0,11,12
 466 102 466 102 491.5 132 c 128,-1,13
 517 162 517 162 571.5 232.5 c 128,-1,14
 626 303 626 303 655.5 365.5 c 128,-1,15
 685 428 685 428 708 504 c 0,16,17
 712 516 712 516 716 537 c 0,18,19
 716 548 716 548 712 548 c 0,20,21
 709 548 709 548 704 543 c 0,22,23
 550 406 550 406 382 406 c 0,24,25
 263 406 263 406 172 492 c 128,-1,26
 81 578 81 578 81 694 c 0,27,28
 81 881 81 881 219 1013 c 128,-1,29
 357 1145 357 1145 546 1145 c 0,30,31
 724 1145 724 1145 825.5 1012 c 128,-1,32
 927 879 927 879 927 700 c 0,0,1
702 825 m 0,33,34
 702 891 702 891 648.5 922.5 c 128,-1,35
 595 954 595 954 525 954 c 0,36,37
 435 954 435 954 359.5 883.5 c 128,-1,38
 284 813 284 813 284 725 c 0,39,40
 284 666 284 666 326 637 c 128,-1,41
 368 608 368 608 431 608 c 0,42,43
 515 608 515 608 608.5 675.5 c 128,-1,44
 702 743 702 743 702 825 c 0,33,34
EndSplineSet
Validated: 1
EndChar

StartChar: colon
Encoding: 58 58 24
Width: 493
Flags: W
LayerCount: 2
Fore
SplineSet
401 608 m 0,0,1
 401 549 401 549 358 513 c 128,-1,2
 315 477 315 477 254 477 c 0,3,4
 201 477 201 477 162 518 c 128,-1,5
 123 559 123 559 123 612 c 0,6,7
 123 672 123 672 165 717 c 128,-1,8
 207 762 207 762 266 762 c 0,9,10
 321 762 321 762 361 714 c 128,-1,11
 401 666 401 666 401 608 c 0,0,1
379 121 m 0,12,13
 379 66 379 66 332 31 c 128,-1,14
 285 -4 285 -4 227 -4 c 0,15,16
 176 -4 176 -4 134 29.5 c 128,-1,17
 92 63 92 63 92 117 c 0,18,19
 92 180 92 180 134 219 c 128,-1,20
 176 258 176 258 237 258 c 0,21,22
 297 258 297 258 338 219 c 128,-1,23
 379 180 379 180 379 121 c 0,12,13
EndSplineSet
Validated: 1
EndChar

StartChar: semicolon
Encoding: 59 59 25
AltUni2: 00037e.ffffffff.0
Width: 452
Flags: W
LayerCount: 2
Fore
SplineSet
360 651 m 0,0,1
 360 602 360 602 315 566 c 128,-1,2
 270 530 270 530 217 530 c 0,3,4
 160 530 160 530 126 571 c 128,-1,5
 92 612 92 612 92 674 c 0,6,7
 92 725 92 725 135 762 c 128,-1,8
 178 799 178 799 227 799 c 0,9,10
 282 799 282 799 321 756 c 128,-1,11
 360 713 360 713 360 651 c 0,0,1
354 133 m 0,12,13
 354 49 354 49 289.5 -38 c 128,-1,14
 225 -125 225 -125 166 -129 c 0,15,16
 158 -129 158 -129 158 -121 c 0,17,18
 170 -78 170 -78 172 -70 c 0,19,20
 196 14 196 14 198 18 c 0,21,22
 200 19 200 19 200 21 c 0,23,24
 200 22 200 22 199 24 c 0,25,26
 196 27 196 27 194 27 c 0,27,28
 98 61 98 61 98 150 c 0,29,30
 98 199 98 199 135 233.5 c 128,-1,31
 172 268 172 268 221 268 c 0,32,33
 280 268 280 268 317 229 c 128,-1,34
 354 190 354 190 354 133 c 0,12,13
EndSplineSet
Validated: 1
EndChar

StartChar: less
Encoding: 60 60 26
Width: 1197
Flags: W
LayerCount: 2
Fore
SplineSet
1090 228 m 0,0,1
 1093 224 1093 224 1093 220 c 0,2,3
 1088 194 1088 194 1084 124 c 256,4,5
 1080 54 1080 54 1077 22 c 0,6,7
 1074 14 1074 14 1071 14 c 0,8,9
 1069 14 1069 14 1068 15 c 0,10,11
 992 67 992 67 597 262 c 0,12,13
 496 313 496 313 309 405 c 0,14,15
 121 497 121 497 71 521 c 0,16,17
 70 522 70 522 69 523 c 0,18,19
 64 523 64 523 64 526 c 0,20,21
 44 584 44 584 32 629 c 0,22,23
 31 630 31 630 31 631 c 0,24,25
 31 634 31 634 36 637 c 0,26,27
 88 662 88 662 274 753 c 0,28,29
 461 845 461 845 562 896 c 0,30,31
 957 1092 957 1092 1034 1143 c 0,32,33
 1035 1144 1035 1144 1036 1144 c 0,34,35
 1039 1144 1039 1144 1042 1137 c 0,36,37
 1045 1104 1045 1104 1049 1035 c 256,38,39
 1053 966 1053 966 1058 939 c 0,40,41
 1058 935 1058 935 1055 931 c 0,42,43
 991 898 991 898 774 808 c 0,44,45
 557 719 557 719 331 628 c 0,46,47
 272 604 272 604 228 587 c 1,48,49
 287 562 287 562 366 531 c 0,50,51
 593 439 593 439 809 350 c 0,52,53
 1026 260 1026 260 1090 228 c 0,0,1
EndSplineSet
Validated: 1
EndChar

StartChar: equal
Encoding: 61 61 27
Width: 499
Flags: W
LayerCount: 2
Fore
SplineSet
419 455 m 0,0,1
 417 426 417 426 413 367 c 128,-1,2
 409 308 409 308 407 279 c 0,3,4
 407 275 407 275 400 271 c 0,5,6
 325 256 325 256 120 242 c 0,7,8
 112 242 112 242 112 248 c 0,9,10
 110 256 110 256 100.5 322.5 c 128,-1,11
 91 389 91 389 85 416 c 0,12,13
 85 424 85 424 93 424 c 0,14,15
 105 424 105 424 149.5 429.5 c 128,-1,16
 194 435 194 435 224 437 c 0,17,18
 296 441 296 441 409 463 c 0,19,20
 419 463 419 463 419 455 c 0,0,1
420 736 m 0,21,22
 418 707 418 707 414 648 c 128,-1,23
 410 589 410 589 408 560 c 0,24,25
 408 556 408 556 401 552 c 0,26,27
 326 537 326 537 121 523 c 0,28,29
 113 523 113 523 113 529 c 0,30,31
 111 537 111 537 101.5 603.5 c 128,-1,32
 92 670 92 670 86 697 c 0,33,34
 86 705 86 705 94 705 c 0,35,36
 106 705 106 705 150.5 710.5 c 128,-1,37
 195 716 195 716 225 718 c 0,38,39
 297 722 297 722 410 744 c 0,40,41
 420 744 420 744 420 736 c 0,21,22
EndSplineSet
Validated: 1
EndChar

StartChar: greater
Encoding: 62 62 28
Width: 1197
Flags: W
LayerCount: 2
Fore
SplineSet
338 358 m 0,1,2
 555 447 555 447 781 538 c 0,3,4
 860 570 860 570 919 594 c 1,5,6
 876 611 876 611 816 635 c 0,7,8
 590 726 590 726 373 816 c 0,9,10
 156 905 156 905 92 938 c 0,11,12
 89 942 89 942 89 946 c 0,13,14
 94 973 94 973 98 1042 c 0,15,16
 102 1112 102 1112 105 1144 c 0,17,18
 108 1151 108 1151 111 1151 c 0,19,20
 113 1151 113 1151 114 1150 c 0,21,22
 190 1100 190 1100 585 903 c 0,23,24
 686 853 686 853 873 761 c 0,25,26
 1065 667 1065 667 1112 644 c 0,27,28
 1116 641 1116 641 1116 639 c 256,29,30
 1116 637 1116 637 1115 636 c 0,31,32
 1103 592 1103 592 1083 534 c 0,33,34
 1083 531 1083 531 1078 530 c 2,35,-1
 1077 529 l 1,36,37
 1026 505 1026 505 838 413 c 0,38,39
 651 321 651 321 550 270 c 0,40,41
 155 75 155 75 79 23 c 0,42,43
 78 22 78 22 76 22 c 0,44,45
 73 22 73 22 70 30 c 0,46,47
 67 62 67 62 63 131 c 0,48,49
 59 201 59 201 54 227 c 0,50,51
 54 231 54 231 57 235 c 0,52,0
 121 268 121 268 338 358 c 0,1,2
EndSplineSet
Validated: 1
EndChar

StartChar: question
Encoding: 63 63 29
Width: 913
Flags: W
LayerCount: 2
Fore
SplineSet
837 958 m 0,0,1
 837 829 837 829 762.5 735 c 128,-1,2
 688 641 688 641 563 596 c 0,3,4
 547 590 547 590 500.5 577.5 c 128,-1,5
 454 565 454 565 424.5 554 c 128,-1,6
 395 543 395 543 360 524.5 c 128,-1,7
 325 506 325 506 308 476 c 128,-1,8
 291 446 291 446 291 410 c 0,9,10
 291 389 291 389 303 344 c 0,11,12
 303 340 303 340 297 336 c 2,13,-1
 174 299 l 2,14,15
 170 299 170 299 164 307 c 0,16,17
 147 334 147 334 147 393 c 0,18,19
 147 496 147 496 205 567 c 0,20,21
 225 594 225 594 247.5 615.5 c 128,-1,22
 270 637 270 637 287.5 650.5 c 128,-1,23
 305 664 305 664 333.5 678 c 128,-1,24
 362 692 362 692 377.5 698.5 c 128,-1,25
 393 705 393 705 432 719 c 128,-1,26
 471 733 471 733 489 739 c 0,27,28
 563 768 563 768 605 806 c 128,-1,29
 647 844 647 844 647 913 c 0,30,31
 647 979 647 979 605 1018 c 128,-1,32
 563 1057 563 1057 500 1057 c 0,33,34
 418 1057 418 1057 342 1010 c 128,-1,35
 266 963 266 963 215 889 c 0,36,37
 212 886 212 886 209 886 c 256,38,39
 206 886 206 886 203 889 c 0,40,41
 151 961 151 961 94 1049 c 1,42,-1
 94 1057 l 1,43,44
 157 1159 157 1159 258.5 1220.5 c 128,-1,45
 360 1282 360 1282 477 1282 c 0,46,47
 620 1282 620 1282 728.5 1190 c 128,-1,48
 837 1098 837 1098 837 958 c 0,0,1
381 117 m 256,50,51
 381 76 381 76 355.5 46 c 128,-1,52
 330 16 330 16 289 16 c 0,53,54
 246 16 246 16 210 48 c 128,-1,55
 174 80 174 80 174 123 c 0,56,57
 174 164 174 164 209 192.5 c 128,-1,58
 244 221 244 221 285 221 c 0,59,60
 325 221 325 221 353 189.5 c 128,-1,49
 381 158 381 158 381 117 c 256,50,51
EndSplineSet
Validated: 1
EndChar

StartChar: at
Encoding: 64 64 30
Width: 1675
Flags: W
LayerCount: 2
Fore
SplineSet
1368 751 m 0,0,1
 1426 644 1426 644 1426 512 c 0,2,3
 1426 395 1426 395 1395 294 c 0,4,5
 1365 194 1365 194 1309 119 c 0,6,7
 1242 30 1242 30 1165 -8 c 0,8,9
 1095 -43 1095 -43 1033 -43 c 2,10,-1
 1022 -43 l 2,11,12
 980 -41 980 -41 927 -3 c 0,13,14
 896 19 896 19 878 51 c 2,15,-1
 846 101 l 2,16,17
 845 105 845 105 841 108 c 0,18,19
 840 109 840 109 838 109 c 256,20,21
 836 109 836 109 833 107 c 0,22,23
 752 50 752 50 684 50 c 0,24,25
 585 50 585 50 522 106 c 0,26,27
 454 165 454 165 454 263 c 0,28,29
 454 364 454 364 540 431 c 0,30,31
 620 494 620 494 724 494 c 0,32,33
 796 494 796 494 845 473 c 1,34,-1
 848 473 l 2,35,36
 854 473 854 473 857 488 c 0,37,38
 858 499 858 499 858 517 c 0,39,40
 858 564 858 564 830 596 c 0,41,42
 801 631 801 631 756 631 c 0,43,44
 635 631 635 631 522 543 c 0,45,46
 520 542 520 542 519 542 c 0,47,48
 517 542 517 542 515 543 c 0,49,50
 511 544 511 544 511 546 c 0,51,52
 479 652 479 652 461 700 c 1,53,-1
 461 702 l 2,54,55
 461 704 461 704 464 707 c 0,56,57
 607 821 607 821 770 821 c 0,58,59
 904 821 904 821 983 737 c 0,60,61
 1060 657 1060 657 1060 525 c 0,62,63
 1060 503 1060 503 1053 398 c 0,64,65
 1046 299 1046 299 1036 213 c 2,66,-1
 1028 146 l 2,67,68
 1031 138 1031 138 1038 130 c 0,69,70
 1042 126 1042 126 1063 126 c 2,71,-1
 1089 126 l 2,72,73
 1113 128 1113 128 1142 157 c 0,74,75
 1171 185 1171 185 1197 230 c 256,76,77
 1223 275 1223 275 1241 332 c 0,78,79
 1258 388 1258 388 1262 448 c 1,80,-1
 1262 478 l 2,81,82
 1262 576 1262 576 1232 654 c 0,83,84
 1196 741 1196 741 1129 799 c 0,85,86
 1062 858 1062 858 969 888 c 0,87,88
 877 918 877 918 769 918 c 0,89,90
 651 918 651 918 555 878 c 0,91,92
 459 839 459 839 390 766 c 0,93,94
 321 694 321 694 284 593 c 0,95,96
 247 493 247 493 247 371 c 0,97,98
 247 243 247 243 288 141 c 0,99,100
 330 40 330 40 404 -30 c 0,101,102
 478 -99 478 -99 579 -136 c 0,103,104
 681 -173 681 -173 801 -173 c 0,105,106
 919 -173 919 -173 1006 -157 c 0,107,108
 1092 -141 1092 -141 1138 -113 c 1,109,-1
 1110 -290 l 1,110,111
 1061 -316 1061 -316 1032 -330 c 0,112,113
 1004 -345 1004 -345 974 -351 c 0,114,115
 945 -357 945 -357 904 -359 c 0,116,117
 864 -361 864 -361 786 -361 c 0,118,119
 635 -361 635 -361 503 -306 c 0,120,121
 370 -251 370 -251 272 -153 c 0,122,123
 172 -55 172 -55 116 78 c 0,124,125
 60 212 60 212 60 371 c 0,126,127
 60 528 60 528 115 662 c 0,128,129
 172 797 172 797 268 895 c 0,130,131
 366 994 366 994 496 1050 c 0,132,133
 627 1105 627 1105 776 1105 c 0,134,135
 900 1105 900 1105 1011 1066 c 0,136,137
 1122 1028 1122 1028 1216 943 c 0,138,139
 1311 858 1311 858 1368 751 c 0,0,1
804 234 m 0,140,141
 849 264 849 264 849 308 c 0,142,143
 849 332 849 332 826 346 c 0,144,145
 807 358 807 358 786 358 c 2,146,-1
 779 358 l 1,147,148
 627 353 627 353 627 258 c 0,149,150
 627 235 627 235 659 220 c 0,151,152
 686 209 686 209 721 209 c 0,153,154
 764 209 764 209 804 234 c 0,140,141
EndSplineSet
Validated: 1
EndChar

StartChar: A
Encoding: 65 65 31
Width: 1030
Flags: W
LayerCount: 2
Fore
SplineSet
1003 14 m 0,0,1
 1003 8 1003 8 997 4 c 0,2,3
 915 -16 915 -16 755 -37 c 0,4,5
 747 -37 747 -37 747 -33 c 0,6,7
 743 -16 743 -16 731.5 32 c 128,-1,8
 720 80 720 80 716 96 c 0,9,10
 694 197 694 197 665 295 c 0,11,12
 665 301 665 301 657 301 c 0,13,14
 429 285 429 285 378 279 c 0,15,16
 374 276 374 276 374 274 c 0,17,18
 341 207 341 207 266 -23 c 0,19,20
 261 -27 261 -27 255 -27 c 0,21,22
 237 -23 237 -23 158 -5.5 c 128,-1,23
 79 12 79 12 36 23 c 0,24,25
 34 23 34 23 32 26 c 0,26,27
 31 28 31 28 31 29 c 0,28,29
 31 31 31 31 32 33 c 0,30,31
 122 233 122 233 305.5 615 c 128,-1,32
 489 997 489 997 579 1198 c 0,33,34
 583 1205 583 1205 586 1205 c 256,35,36
 589 1205 589 1205 591 1198 c 0,37,38
 714 887 714 887 818 565 c 0,39,40
 839 504 839 504 902.5 311.5 c 128,-1,41
 966 119 966 119 1003 14 c 0,0,1
630 467 m 0,42,43
 618 514 618 514 595.5 591 c 128,-1,44
 573 668 573 668 562 702 c 0,45,46
 560 709 560 709 555 709 c 256,47,48
 550 709 550 709 548 702 c 0,49,50
 538 676 538 676 502 593 c 128,-1,51
 466 510 466 510 446 459 c 0,52,53
 445 457 445 457 445 455 c 0,54,55
 445 454 445 454 446 452 c 256,56,57
 447 450 447 450 449 450 c 0,58,59
 450 450 450 450 452 451 c 0,60,61
 573 457 573 457 624 459 c 0,62,63
 631 459 631 459 631 463 c 0,64,65
 631 465 631 465 630 467 c 0,42,43
EndSplineSet
Validated: 1
EndChar

StartChar: B
Encoding: 66 66 32
Width: 995
Flags: W
LayerCount: 2
Fore
SplineSet
913 342 m 0,0,1
 913 229 913 229 828 148.5 c 128,-1,2
 743 68 743 68 629 33 c 128,-1,3
 515 -2 515 -2 397 -2 c 0,4,5
 198 -2 198 -2 130 18 c 0,6,7
 120 23 120 23 120 33 c 0,8,9
 122 102 122 102 122 123 c 0,10,11
 122 156 122 156 114 238 c 0,12,13
 113 239 113 239 113 241 c 256,14,15
 113 243 113 243 116 245 c 0,16,17
 118 247 118 247 121 247 c 0,18,19
 122 247 122 247 124 246 c 0,20,21
 187 221 187 221 227 221 c 2,22,-1
 233 221 l 2,23,24
 243 221 243 221 243 227 c 0,25,26
 245 309 245 309 245 390 c 0,27,28
 245 470 245 470 243 549 c 0,29,30
 243 811 243 811 237 897 c 0,31,32
 237 903 237 903 229 903 c 0,33,34
 194 899 194 899 94 862 c 1,35,-1
 91 862 l 2,36,37
 86 862 86 862 83 868 c 0,38,39
 83 903 83 903 79 965 c 0,40,41
 79 979 79 979 75 1022 c 128,-1,42
 71 1065 71 1065 71 1090 c 0,43,44
 71 1098 71 1098 79 1100 c 0,45,46
 114 1112 114 1112 210.5 1123.5 c 128,-1,47
 307 1135 307 1135 378 1135 c 0,48,49
 448 1135 448 1135 510.5 1127.5 c 128,-1,50
 573 1120 573 1120 643.5 1098.5 c 128,-1,51
 714 1077 714 1077 764 1043.5 c 128,-1,52
 814 1010 814 1010 847 950.5 c 128,-1,53
 880 891 880 891 880 813 c 0,54,55
 880 739 880 739 837 673.5 c 128,-1,56
 794 608 794 608 720 569 c 0,57,58
 712 565 712 565 712 562 c 256,59,60
 712 559 712 559 722 557 c 0,61,62
 806 535 806 535 859.5 477.5 c 128,-1,63
 913 420 913 420 913 342 c 0,0,1
665 799 m 0,64,65
 665 868 665 868 608.5 899 c 128,-1,66
 552 930 552 930 474 930 c 2,67,-1
 462 930 l 2,68,69
 454 930 454 930 454 924 c 0,70,71
 454 893 454 893 450 807 c 128,-1,72
 446 721 446 721 446 674 c 0,73,74
 446 666 446 666 454 666 c 2,75,-1
 470 664 l 1,76,77
 665 664 665 664 665 799 c 0,64,65
669 340 m 0,78,79
 669 410 669 410 621 447 c 0,80,81
 578 479 578 479 517 479 c 2,82,-1
 503 479 l 1,83,-1
 450 477 l 2,84,85
 444 477 444 477 444 469 c 2,86,-1
 442 344 l 2,87,88
 442 330 442 330 446 215 c 0,89,90
 446 209 446 209 452 209 c 2,91,-1
 468 209 l 1,92,-1
 479 207 l 1,93,94
 550 207 550 207 609.5 240.5 c 128,-1,95
 669 274 669 274 669 340 c 0,78,79
EndSplineSet
Validated: 1
EndChar

StartChar: C
Encoding: 67 67 33
Width: 958
Flags: W
LayerCount: 2
Fore
SplineSet
896 1075 m 0,0,1
 849 877 849 877 845 850 c 0,2,3
 842 843 842 843 838 843 c 0,4,5
 837 843 837 843 835 844 c 0,6,7
 773 874 773 874 704 874 c 0,8,9
 548 874 548 874 435.5 779 c 128,-1,10
 323 684 323 684 323 532 c 0,11,12
 323 215 323 215 669 215 c 0,13,14
 728 215 728 215 773 229 c 0,15,16
 775 230 775 230 776 230 c 0,17,18
 780 230 780 230 783 223 c 0,19,20
 796 88 796 88 806 39 c 0,21,22
 806 25 806 25 796 20 c 0,23,24
 775 10 775 10 709.5 1 c 128,-1,25
 644 -8 644 -8 609 -8 c 0,26,27
 374 -8 374 -8 227.5 143.5 c 128,-1,28
 81 295 81 295 81 528 c 0,29,30
 81 793 81 793 267.5 957.5 c 128,-1,31
 454 1122 454 1122 720 1122 c 0,32,33
 808 1122 808 1122 886 1092 c 0,34,35
 896 1085 896 1085 896 1075 c 0,0,1
EndSplineSet
Validated: 1
EndChar

StartChar: D
Encoding: 68 68 34
Width: 1093
Flags: W
LayerCount: 2
Fore
SplineSet
1011 563 m 0,0,1
 1011 412 1011 412 946.5 297 c 128,-1,2
 882 182 882 182 773.5 116.5 c 128,-1,3
 665 51 665 51 541 18.5 c 128,-1,4
 417 -14 417 -14 284 -14 c 0,5,6
 178 -14 178 -14 143 -8 c 1,7,8
 137 -2 137 -2 137 0 c 0,9,10
 139 31 139 31 139 90 c 0,11,12
 139 111 139 111 137 139.5 c 128,-1,13
 135 168 135 168 135 184 c 0,14,15
 135 192 135 192 139 192 c 0,16,17
 141 192 141 192 143 190 c 0,18,19
 155 190 155 190 181.5 188 c 128,-1,20
 208 186 208 186 227 184 c 0,21,22
 228 183 228 183 229 183 c 256,23,24
 230 183 230 183 231 184 c 0,25,26
 233 186 233 186 233 190 c 0,27,28
 233 213 233 213 232 299 c 128,-1,29
 231 385 231 385 231 410 c 0,30,31
 231 831 231 831 219 936 c 1,32,33
 213 942 213 942 211 942 c 0,34,35
 180 942 180 942 77 926 c 0,36,37
 69 926 69 926 69 932 c 0,38,39
 61 1055 61 1055 61 1116 c 0,40,41
 61 1124 61 1124 71 1124 c 0,42,43
 131 1135 131 1135 213 1135 c 0,44,45
 360 1135 360 1135 491 1108 c 128,-1,46
 622 1081 622 1081 744 1019.5 c 128,-1,47
 866 958 866 958 938.5 841.5 c 128,-1,48
 1011 725 1011 725 1011 563 c 0,0,1
778 575 m 0,49,50
 778 664 778 664 741 731.5 c 128,-1,51
 704 799 704 799 646.5 834.5 c 128,-1,52
 589 870 589 870 540 888.5 c 128,-1,53
 491 907 491 907 450 911 c 0,54,55
 444 913 444 913 439 913 c 0,56,57
 428 913 428 913 428 901 c 2,58,-1
 426 797 l 1,59,-1
 426 733 l 2,60,61
 426 523 426 523 442 207 c 0,62,63
 445 201 445 201 448 201 c 2,64,-1
 450 201 l 1,65,66
 596 221 596 221 687 316.5 c 128,-1,67
 778 412 778 412 778 575 c 0,49,50
EndSplineSet
Validated: 1
EndChar

StartChar: E
Encoding: 69 69 35
Width: 905
Flags: W
LayerCount: 2
Fore
SplineSet
855 197 m 0,0,1
 853 190 853 190 838 142 c 128,-1,2
 823 94 823 94 804.5 33.5 c 128,-1,3
 786 -27 786 -27 784 -33 c 0,4,5
 778 -39 778 -39 776 -39 c 0,6,7
 374 -10 374 -10 145 23 c 0,8,9
 139 23 139 23 139 29 c 0,10,11
 114 424 114 424 112 795 c 0,12,13
 112 885 112 885 116 1094 c 0,14,15
 116 1100 116 1100 122 1100 c 0,16,17
 163 1104 163 1104 280 1112 c 128,-1,18
 397 1120 397 1120 461.5 1125 c 128,-1,19
 526 1130 526 1130 620 1140.5 c 128,-1,20
 714 1151 714 1151 786 1163 c 0,21,22
 794 1163 794 1163 794 1155 c 0,23,24
 794 1137 794 1137 793 1116.5 c 128,-1,25
 792 1096 792 1096 790 1071.5 c 128,-1,26
 788 1047 788 1047 788 1032 c 0,27,28
 788 995 788 995 792 922 c 0,29,30
 792 915 792 915 786 915 c 0,31,32
 716 911 716 911 577 911 c 256,33,34
 438 911 438 911 364 907 c 0,35,36
 358 907 358 907 358 901 c 0,37,38
 355 875 355 875 355 836 c 0,39,40
 355 816 355 816 356 794 c 0,41,42
 357 759 357 759 357 732 c 0,43,44
 357 706 357 706 356 686 c 0,45,46
 356 680 356 680 364 680 c 0,47,48
 388 678 388 678 429 676 c 128,-1,49
 470 674 470 674 474 674 c 0,50,51
 561 674 561 674 733 682 c 1,52,-1
 735 682 l 2,53,54
 739 682 739 682 739 676 c 0,55,56
 737 625 737 625 712 469 c 0,57,58
 712 463 712 463 706 463 c 0,59,60
 681 463 681 463 604 461 c 0,61,62
 565 460 565 460 535 460 c 0,63,64
 506 460 506 460 485 461 c 0,65,66
 466 461 466 461 425 462 c 128,-1,67
 384 463 384 463 362 463 c 0,68,69
 356 463 356 463 354 457 c 2,70,-1
 354 246 l 2,71,72
 354 244 354 244 360 238 c 1,73,74
 515 217 515 217 847 205 c 0,75,76
 855 205 855 205 855 197 c 0,0,1
EndSplineSet
Validated: 1
EndChar

StartChar: F
Encoding: 70 70 36
Width: 798
Flags: W
LayerCount: 2
Fore
SplineSet
795 1098 m 0,0,1
 790 1067 790 1067 777 996.5 c 128,-1,2
 764 926 764 926 760 887 c 0,3,4
 760 879 760 879 752 879 c 0,5,6
 700 881 700 881 547 893 c 0,7,8
 447 900 447 900 389 900 c 0,9,10
 366 900 366 900 350 899 c 0,11,12
 344 899 344 899 344 893 c 0,13,14
 336 685 336 685 336 617 c 2,15,-1
 336 596 l 2,16,17
 336 590 336 590 342 590 c 0,18,19
 549 602 549 602 629 614 c 0,20,21
 638 614 638 614 638 610 c 0,22,23
 638 608 638 608 637 606 c 0,24,25
 631 569 631 569 624.5 490.5 c 128,-1,26
 618 412 618 412 616 395 c 0,27,28
 616 389 616 389 610 389 c 0,29,30
 576 388 576 388 547 388 c 2,31,-1
 519 388 l 2,32,33
 499 389 499 389 476 389 c 256,34,35
 453 389 453 389 427 388 c 0,36,37
 375 387 375 387 334 383 c 0,38,39
 328 383 328 383 328 377 c 2,40,-1
 328 340 l 2,41,42
 328 232 328 232 336 -25 c 0,43,44
 336 -33 336 -33 328 -33 c 0,45,46
 176 -20 176 -20 98 -20 c 1,47,48
 90 -16 90 -16 90 -12 c 0,49,50
 92 39 92 39 97 203 c 128,-1,51
 102 367 102 367 106 455 c 0,52,53
 131 1001 131 1001 137 1112 c 0,54,55
 137 1114 137 1114 139 1117 c 0,56,57
 140 1119 140 1119 141 1119 c 256,58,59
 142 1119 142 1119 143 1118 c 0,60,61
 317 1105 317 1105 592 1105 c 0,62,63
 683 1105 683 1105 786 1106 c 0,64,65
 795 1106 795 1106 795 1098 c 0,0,1
EndSplineSet
Validated: 1
EndChar

StartChar: G
Encoding: 71 71 37
Width: 1021
Flags: W
LayerCount: 2
Fore
SplineSet
985 395 m 0,0,1
 985 389 985 389 978 387 c 2,2,-1
 847 371 l 2,3,4
 841 371 841 371 841 362 c 0,5,6
 847 317 847 317 862.5 181 c 128,-1,7
 878 45 878 45 884 2 c 0,8,9
 884 -4 884 -4 878 -6 c 0,10,11
 743 -39 743 -39 612 -39 c 0,12,13
 352 -39 352 -39 209.5 129 c 128,-1,14
 67 297 67 297 67 573 c 0,15,16
 67 805 67 805 229 979 c 128,-1,17
 391 1153 391 1153 624 1153 c 0,18,19
 640 1153 640 1153 702 1149 c 0,20,21
 708 1149 708 1149 708 1139 c 0,22,23
 709 1120 709 1120 709 1099 c 0,24,25
 709 1027 709 1027 698 928 c 0,26,27
 698 922 698 922 690 922 c 0,28,29
 673 926 673 926 642 926 c 0,30,31
 503 926 503 926 405 829.5 c 128,-1,32
 307 733 307 733 307 594 c 0,33,34
 307 510 307 510 315 469 c 0,35,36
 333 360 333 360 410 271 c 128,-1,37
 487 182 487 182 589 182 c 0,38,39
 591 182 591 182 659 188 c 0,40,41
 667 188 667 188 667 197 c 0,42,43
 663 236 663 236 645.5 361.5 c 128,-1,44
 628 487 628 487 622 549 c 0,45,46
 622 557 622 557 628 557 c 0,47,48
 681 565 681 565 789.5 579.5 c 128,-1,49
 898 594 898 594 952 604 c 0,50,51
 960 604 960 604 960 598 c 0,52,53
 964 569 964 569 971 500.5 c 128,-1,54
 978 432 978 432 985 395 c 0,0,1
EndSplineSet
Validated: 1
EndChar

StartChar: H
Encoding: 72 72 38
Width: 1017
Flags: W
LayerCount: 2
Fore
SplineSet
902 1130 m 1,0,1
 882 842 882 842 874 578 c 0,2,3
 872 471 872 471 872 219 c 2,4,-1
 872 8 l 2,5,6
 872 2 872 2 865 2 c 0,7,8
 853 2 853 2 834.5 1 c 128,-1,9
 816 0 816 0 802 0 c 2,10,-1
 790 0 l 2,11,12
 704 0 704 0 650 -10 c 0,13,14
 642 -10 642 -10 642 -2 c 0,15,16
 644 55 644 55 644 170 c 0,17,18
 644 293 644 293 640 383 c 0,19,20
 640 389 640 389 634 389 c 0,21,22
 452 389 452 389 370 381 c 0,23,24
 364 381 364 381 364 373 c 0,25,26
 364 336 364 336 370 10 c 0,27,28
 370 4 370 4 362 4 c 0,29,30
 355 5 355 5 344 5 c 256,31,32
 333 5 333 5 320 4 c 0,33,34
 292 2 292 2 284 2 c 0,35,36
 265 2 265 2 143 -10 c 0,37,38
 134 -10 134 -10 134 -2 c 0,39,40
 138 139 138 139 138 580 c 0,41,42
 138 856 138 856 120 1073 c 0,43,44
 120 1081 120 1081 128 1081 c 0,45,46
 349 1081 349 1081 378 1083 c 0,47,48
 386 1083 386 1083 386 1075 c 0,49,50
 386 1057 386 1057 384 1024 c 128,-1,51
 382 991 382 991 382 975 c 0,52,53
 380 928 380 928 368 608 c 0,54,55
 368 600 368 600 374 600 c 0,56,57
 394 600 394 600 472 596 c 1,58,-1
 583 596 l 2,59,60
 616 596 616 596 636 598 c 0,61,62
 642 598 642 598 642 604 c 0,63,64
 643 694 643 694 643 775 c 0,65,66
 643 977 643 977 636 1124 c 0,67,68
 636 1133 636 1133 642 1133 c 0,69,70
 649 1132 649 1132 669 1132 c 0,71,72
 727 1132 727 1132 896 1139 c 0,73,74
 902 1139 902 1139 902 1133 c 2,75,-1
 902 1130 l 1,0,1
EndSplineSet
Validated: 1
EndChar

StartChar: I
Encoding: 73 73 39
Width: 690
Flags: W
LayerCount: 2
Fore
SplineSet
601 -2 m 0,0,1
 602 -4 602 -4 602 -6 c 0,2,3
 602 -10 602 -10 595 -10 c 0,4,5
 462 -23 462 -23 157 -49 c 0,6,7
 155 -50 155 -50 153 -50 c 0,8,9
 149 -50 149 -50 149 -43 c 0,10,11
 140 66 140 66 134 113 c 0,12,13
 134 121 134 121 143 121 c 0,14,15
 157 123 157 123 197 127 c 128,-1,16
 237 131 237 131 249 133 c 0,17,18
 255 133 255 133 255 141 c 0,19,20
 247 375 247 375 218 893 c 0,21,22
 218 901 218 901 210 901 c 2,23,-1
 91 889 l 2,24,25
 85 889 85 889 85 897 c 0,26,27
 85 922 85 922 81 979 c 128,-1,28
 77 1036 77 1036 77 1063 c 0,29,30
 77 1069 77 1069 83 1069 c 0,31,32
 554 1141 554 1141 573 1145 c 0,33,34
 577 1145 577 1145 581 1139 c 0,35,36
 585 1102 585 1102 590 1036.5 c 128,-1,37
 595 971 595 971 597 950 c 0,38,39
 597 944 597 944 591 944 c 0,40,41
 564 938 564 938 511 932 c 128,-1,42
 458 926 458 926 433 922 c 0,43,44
 427 922 427 922 427 915 c 0,45,46
 460 381 460 381 476 160 c 0,47,48
 478 154 478 154 485 154 c 0,49,50
 571 162 571 162 587 166 c 0,51,52
 595 166 595 166 595 158 c 0,53,54
 601 4 601 4 601 -2 c 0,0,1
EndSplineSet
Validated: 1
EndChar

StartChar: J
Encoding: 74 74 40
Width: 819
Flags: W
LayerCount: 2
Fore
SplineSet
712 573 m 0,0,1
 712 504 712 504 710 462 c 128,-1,2
 708 420 708 420 702 347 c 128,-1,3
 696 274 696 274 683.5 227 c 128,-1,4
 671 180 671 180 645.5 123 c 128,-1,5
 620 66 620 66 586 33 c 128,-1,6
 552 0 552 0 499 -23.5 c 128,-1,7
 446 -47 446 -47 378 -47 c 0,8,9
 194 -47 194 -47 112 55.5 c 128,-1,10
 30 158 30 158 30 324 c 2,11,-1
 32 426 l 2,12,13
 32 432 32 432 38 432 c 0,14,15
 67 440 67 440 138.5 455.5 c 128,-1,16
 210 471 210 471 247 481 c 0,17,18
 249 482 249 482 251 482 c 0,19,20
 255 482 255 482 255 475 c 0,21,22
 255 453 255 453 253 385 c 2,23,-1
 253 317 l 2,24,25
 253 268 253 268 279.5 225 c 128,-1,26
 306 182 306 182 358 182 c 0,27,28
 476 182 476 182 487 408 c 0,29,30
 488 420 488 420 488 438 c 0,31,32
 488 556 488 556 466 958 c 0,33,34
 464 991 464 991 460 1039 c 128,-1,35
 456 1087 456 1087 456 1114 c 0,36,37
 456 1122 456 1122 462 1122 c 0,38,39
 679 1141 679 1141 698 1145 c 0,40,41
 706 1145 706 1145 706 1135 c 0,42,43
 708 1110 708 1110 708 1081 c 256,44,45
 708 1052 708 1052 706 1018 c 0,46,47
 706 965 706 965 709 811 c 128,-1,48
 712 657 712 657 712 573 c 0,0,1
EndSplineSet
Validated: 1
EndChar

StartChar: K
Encoding: 75 75 41
Width: 962
Flags: W
LayerCount: 2
Fore
SplineSet
923 141 m 0,0,1
 886 88 886 88 768 -39 c 0,2,3
 765 -42 765 -42 761 -42 c 0,4,5
 758 -42 758 -42 755 -39 c 0,6,7
 573 174 573 174 378 360 c 0,8,9
 373 365 373 365 370 365 c 0,10,11
 366 365 366 365 366 354 c 0,12,13
 370 272 370 272 370 248 c 0,14,15
 370 195 370 195 376.5 110 c 128,-1,16
 383 25 383 25 383 12 c 2,17,-1
 383 10 l 2,18,19
 383 6 383 6 376 6 c 0,20,21
 344 2 344 2 307 -1 c 128,-1,22
 270 -4 270 -4 225 -7 c 128,-1,23
 180 -10 180 -10 155 -12 c 0,24,25
 147 -12 147 -12 147 -6 c 0,26,27
 147 8 147 8 148 39 c 128,-1,28
 149 70 149 70 149 84 c 0,29,30
 149 500 149 500 139 659 c 0,31,32
 118 1012 118 1012 108 1094 c 0,33,34
 107 1096 107 1096 107 1098 c 0,35,36
 107 1102 107 1102 114 1102 c 0,37,38
 227 1102 227 1102 370 1112 c 0,39,40
 378 1112 378 1112 378 1104 c 0,41,42
 378 1098 378 1098 377 1083.5 c 128,-1,43
 376 1069 376 1069 376 1067 c 0,44,45
 364 930 364 930 364 721 c 2,46,-1
 364 625 l 2,47,48
 364 618 364 618 376 613 c 0,49,50
 381 611 381 611 384 611 c 0,51,52
 389 611 389 611 391 614 c 0,53,54
 516 791 516 791 583 926 c 1,55,56
 639 1028 639 1028 661 1079 c 0,57,58
 662 1083 662 1083 665 1083 c 256,59,60
 668 1083 668 1083 671 1081 c 0,61,62
 692 1069 692 1069 890 987 c 0,63,64
 895 985 895 985 895 982 c 0,65,66
 895 980 895 980 892 977 c 0,67,68
 641 623 641 623 573 504 c 0,69,70
 573 498 573 498 575 496 c 0,71,72
 645 418 645 418 729 330 c 0,73,74
 774 283 774 283 921 150 c 0,75,76
 924 145 924 145 924 143 c 0,77,78
 924 142 924 142 923 141 c 0,0,1
EndSplineSet
Validated: 1
EndChar

StartChar: L
Encoding: 76 76 42
Width: 780
Flags: W
LayerCount: 2
Fore
SplineSet
737 227 m 0,0,1
 730 199 730 199 718 125 c 128,-1,2
 706 51 706 51 698 8 c 0,3,4
 698 6 698 6 696 4 c 0,5,6
 695 3 695 3 694 3 c 256,7,8
 693 3 693 3 692 4 c 0,9,10
 652 5 652 5 604 5 c 0,11,12
 426 5 426 5 128 -12 c 0,13,14
 122 -12 122 -12 122 -4 c 0,15,16
 123 34 123 34 123 104 c 0,17,18
 123 316 123 316 118 821 c 0,19,20
 118 958 118 958 112 1096 c 0,21,22
 112 1104 112 1104 120 1104 c 0,23,24
 129 1103 129 1103 143 1103 c 0,25,26
 206 1103 206 1103 366 1118 c 0,27,28
 374 1118 374 1118 374 1110 c 0,29,30
 366 1004 366 1004 352.5 735.5 c 128,-1,31
 339 467 339 467 329 336 c 0,32,33
 329 322 329 322 327 297 c 128,-1,34
 325 272 325 272 324 250.5 c 128,-1,35
 323 229 323 229 323 209 c 0,36,37
 323 203 323 203 327 203 c 2,38,-1
 329 203 l 1,39,40
 604 219 604 219 728 236 c 0,41,42
 730 237 730 237 731 237 c 0,43,44
 734 237 734 237 736 235 c 0,45,46
 738 232 738 232 738 230 c 0,47,48
 738 229 738 229 737 227 c 0,0,1
EndSplineSet
Validated: 1
EndChar

StartChar: M
Encoding: 77 77 43
Width: 1124
Flags: W
LayerCount: 2
Fore
SplineSet
1011 -16 m 0,0,1
 1011 -23 1011 -23 1005 -23 c 0,2,3
 949 -29 949 -29 765 -43 c 0,4,5
 763 -44 763 -44 761 -44 c 0,6,7
 757 -44 757 -44 757 -37 c 0,8,9
 777 209 777 209 777 475 c 0,10,11
 777 483 777 483 773 484 c 2,12,-1
 772 484 l 2,13,14
 768 484 768 484 765 479 c 0,15,16
 675 342 675 342 599 213 c 0,17,18
 597 207 597 207 594 207 c 256,19,20
 591 207 591 207 587 213 c 0,21,22
 566 238 566 238 372 518 c 0,23,24
 369 523 369 523 366 523 c 0,25,26
 365 523 365 523 364 522 c 0,27,28
 360 520 360 520 360 514 c 0,29,30
 347 176 347 176 341 -23 c 0,31,32
 341 -31 341 -31 337 -31 c 0,33,34
 296 -39 296 -39 218 -47 c 0,35,36
 212 -47 212 -47 166 -53 c 128,-1,37
 120 -59 120 -59 91 -63 c 0,38,39
 81 -63 81 -63 81 -55 c 0,40,41
 95 137 95 137 196 1147 c 0,42,43
 198 1160 198 1160 203 1160 c 0,44,45
 207 1160 207 1160 212 1151 c 0,46,47
 337 938 337 938 419 815 c 0,48,49
 462 752 462 752 593 541 c 0,50,51
 597 536 597 536 601 536 c 0,52,53
 604 536 604 536 607 541 c 0,54,55
 616 557 616 557 714 741 c 0,56,57
 747 807 747 807 823.5 952.5 c 128,-1,58
 900 1098 900 1098 927 1153 c 0,59,60
 927 1155 927 1155 931 1162 c 128,-1,61
 935 1169 935 1169 939 1174.5 c 128,-1,62
 943 1180 943 1180 947 1180 c 0,63,64
 953 1180 953 1180 956.5 1173.5 c 128,-1,65
 960 1167 960 1167 962 1157 c 2,66,-1
 962 1147 l 2,67,68
 962 1145 962 1145 967 1024 c 128,-1,69
 972 903 972 903 977 754.5 c 128,-1,70
 982 606 982 606 984 547 c 0,71,72
 988 307 988 307 1011 -16 c 0,0,1
EndSplineSet
Validated: 1
EndChar

StartChar: N
Encoding: 78 78 44
Width: 993
Flags: W
LayerCount: 2
Fore
SplineSet
885 1112 m 0,0,1
 883 995 883 995 877.5 781 c 128,-1,2
 872 567 872 567 869 392 c 128,-1,3
 866 217 866 217 866 61 c 2,4,-1
 866 -18 l 2,5,6
 866 -33 866 -33 857 -36 c 0,7,8
 855 -37 855 -37 853 -37 c 0,9,10
 846 -37 846 -37 840 -29 c 0,11,12
 811 0 811 0 723 86 c 128,-1,13
 635 172 635 172 592 215 c 0,14,15
 547 262 547 262 463 353 c 128,-1,16
 379 444 379 444 346 481 c 0,17,18
 343 486 343 486 339 486 c 0,19,20
 338 486 338 486 337 485 c 0,21,22
 333 484 333 484 333 480 c 0,23,24
 333 479 333 479 334 477 c 0,25,26
 336 451 336 451 344 382 c 128,-1,27
 352 313 352 313 354 299 c 0,28,29
 375 127 375 127 397 -27 c 0,30,31
 397 -35 397 -35 389 -35 c 0,32,33
 331 -28 331 -28 269 -28 c 0,34,35
 218 -28 218 -28 164 -33 c 0,36,37
 163 -34 163 -34 162 -34 c 256,38,39
 161 -34 161 -34 160 -32 c 0,40,41
 158 -29 158 -29 158 -27 c 0,42,43
 151 43 151 43 143 182 c 0,44,45
 141 201 141 201 129 409.5 c 128,-1,46
 117 618 117 618 112 725 c 0,47,48
 112 729 112 729 105 884.5 c 128,-1,49
 98 1040 98 1040 92 1106 c 0,50,51
 92 1114 92 1114 98 1117 c 0,52,53
 100 1118 100 1118 101 1118 c 0,54,55
 106 1118 106 1118 110 1112 c 0,56,57
 121 1098 121 1098 154.5 1056 c 128,-1,58
 188 1014 188 1014 198 999 c 0,59,60
 424 690 424 690 651 446 c 0,61,62
 654 443 654 443 657 443 c 0,63,64
 658 443 658 443 660 444 c 0,65,66
 664 445 664 445 664 449 c 0,67,68
 664 451 664 451 663 453 c 0,69,70
 649 758 649 758 616 1112 c 0,71,72
 616 1118 616 1118 622 1118 c 0,73,74
 649 1117 649 1117 687 1117 c 0,75,76
 761 1117 761 1117 876 1120 c 0,77,78
 885 1120 885 1120 885 1112 c 0,0,1
EndSplineSet
Validated: 1
EndChar

StartChar: O
Encoding: 79 79 45
Width: 1081
Flags: W
LayerCount: 2
Fore
SplineSet
1005 543 m 0,0,1
 1005 459 1005 459 982.5 360.5 c 128,-1,2
 960 262 960 262 921 197 c 0,3,4
 794 -33 794 -33 534 -33 c 0,5,6
 325 -33 325 -33 200 123 c 128,-1,7
 75 279 75 279 75 508 c 0,8,9
 75 664 75 664 127 803 c 128,-1,10
 179 942 179 942 291 1036 c 128,-1,11
 403 1130 403 1130 550 1130 c 0,12,13
 691 1130 691 1130 797.5 1043 c 128,-1,14
 904 956 904 956 954.5 825 c 128,-1,15
 1005 694 1005 694 1005 543 c 0,0,1
761 528 m 0,16,17
 761 584 761 584 753 638 c 128,-1,18
 745 692 745 692 726.5 748.5 c 128,-1,19
 708 805 708 805 668 839.5 c 128,-1,20
 628 874 628 874 575 874 c 0,21,22
 446 874 446 874 383.5 775 c 128,-1,23
 321 676 321 676 321 524 c 0,24,25
 321 178 321 178 532 178 c 0,26,27
 655 178 655 178 708 278.5 c 128,-1,28
 761 379 761 379 761 528 c 0,16,17
EndSplineSet
Validated: 1
EndChar

StartChar: P
Encoding: 80 80 46
Width: 1030
Flags: W
LayerCount: 2
Fore
SplineSet
977 846 m 1,0,1
 971 672 971 672 830.5 532.5 c 128,-1,2
 690 393 690 393 508 338 c 0,3,4
 502 338 502 338 502 330 c 0,5,6
 506 268 506 268 515 175 c 128,-1,7
 524 82 524 82 528 14 c 0,8,9
 528 8 528 8 522 6 c 0,10,11
 473 0 473 0 411.5 -8 c 128,-1,12
 350 -16 350 -16 303 -23 c 1,13,-1
 302 -23 l 2,14,15
 298 -23 298 -23 295 -16 c 0,16,17
 280 563 280 563 250 846 c 0,18,19
 250 853 250 853 246 853 c 0,20,21
 244 853 244 853 242 852 c 0,22,23
 201 842 201 842 104 803 c 0,24,25
 101 802 101 802 100 802 c 0,26,27
 96 802 96 802 96 807 c 0,28,29
 88 836 88 836 73.5 916.5 c 128,-1,30
 59 997 59 997 51 1032 c 0,31,32
 50 1035 50 1035 50 1036 c 0,33,34
 50 1040 50 1040 55 1040 c 0,35,36
 164 1090 164 1090 316 1124 c 0,37,38
 458 1155 458 1155 563 1155 c 2,39,-1
 575 1155 l 2,40,41
 651 1153 651 1153 713.5 1140.5 c 128,-1,42
 776 1128 776 1128 841.5 1096.5 c 128,-1,43
 907 1065 907 1065 943 1002 c 0,44,45
 977 941 977 941 977 856 c 2,46,-1
 977 846 l 1,0,1
717 795 m 2,47,-1
 717 803 l 2,48,49
 717 872 717 872 683 903 c 0,50,51
 647 936 647 936 573 940 c 0,52,53
 514 940 514 940 469 924 c 0,54,55
 459 918 459 918 459 909 c 0,56,57
 465 842 465 842 468 795 c 128,-1,58
 471 748 471 748 473 722 c 128,-1,59
 475 696 475 696 475 690 c 0,60,61
 475 678 475 678 489 524 c 0,62,63
 489 516 489 516 494 516 c 0,64,65
 496 516 496 516 500 518 c 0,66,67
 584 551 584 551 649.5 630 c 128,-1,68
 715 709 715 709 717 795 c 2,47,-1
EndSplineSet
Validated: 1
EndChar

StartChar: Q
Encoding: 81 81 47
Width: 1118
Flags: W
LayerCount: 2
Fore
SplineSet
1069 141 m 0,0,1
 1059 117 1059 117 1027 47 c 128,-1,2
 995 -23 995 -23 979 -59 c 0,3,4
 976 -65 976 -65 973 -65 c 0,5,6
 971 -65 971 -65 969 -63 c 0,7,8
 915 -29 915 -29 768 90 c 0,9,10
 766 92 766 92 764 92 c 0,11,12
 761 92 761 92 758 90 c 0,13,14
 637 -31 637 -31 494 -31 c 0,15,16
 356 -31 356 -31 261 61.5 c 128,-1,17
 166 154 166 154 127 277.5 c 128,-1,18
 88 401 88 401 88 537 c 0,19,20
 88 692 88 692 140 833.5 c 128,-1,21
 192 975 192 975 309 1075.5 c 128,-1,22
 426 1176 426 1176 584 1176 c 0,23,24
 776 1176 776 1176 877.5 1029.5 c 128,-1,25
 979 883 979 883 979 676 c 0,26,27
 979 444 979 444 879 252 c 0,28,29
 877 249 877 249 877 246 c 256,30,31
 877 243 877 243 881 242 c 0,32,33
 1024 168 1024 168 1065 150 c 0,34,35
 1069 150 1069 150 1069 141 c 0,0,1
770 639 m 0,36,37
 770 754 770 754 723 842 c 128,-1,38
 676 930 676 930 571 930 c 0,39,40
 496 930 496 930 440.5 885 c 128,-1,41
 385 840 385 840 359.5 766 c 128,-1,42
 334 692 334 692 323.5 624.5 c 128,-1,43
 313 557 313 557 313 487 c 0,44,45
 313 436 313 436 320.5 389 c 128,-1,46
 328 342 328 342 347.5 292 c 128,-1,47
 367 242 367 242 407.5 212 c 128,-1,48
 448 182 448 182 506 182 c 0,49,50
 553 182 553 182 594 209 c 0,51,52
 597 212 597 212 597 215 c 256,53,54
 597 218 597 218 594 221 c 0,55,56
 559 254 559 254 510 315 c 0,57,58
 508 317 508 317 508 319 c 0,59,60
 508 322 508 322 512 326 c 0,61,62
 524 336 524 336 544.5 355.5 c 128,-1,63
 565 375 565 375 582.5 390.5 c 128,-1,64
 600 406 600 406 616 418 c 1,65,66
 625 418 625 418 627 416 c 0,67,68
 633 410 633 410 645 398.5 c 128,-1,69
 657 387 657 387 663 381 c 0,70,71
 702 348 702 348 704 346 c 0,72,73
 707 345 707 345 709 345 c 0,74,75
 714 345 714 345 717 350 c 0,76,77
 770 498 770 498 770 639 c 0,36,37
EndSplineSet
Validated: 1
EndChar

StartChar: R
Encoding: 82 82 48
Width: 974
Flags: W
LayerCount: 2
Fore
SplineSet
956 59 m 0,0,1
 958 56 958 56 958 53 c 256,2,3
 958 50 958 50 954 49 c 0,4,5
 911 29 911 29 829 -1 c 128,-1,6
 747 -31 747 -31 723 -41 c 0,7,8
 715 -41 715 -41 715 -37 c 0,9,10
 692 6 692 6 640 100.5 c 128,-1,11
 588 195 588 195 546 275.5 c 128,-1,12
 504 356 504 356 475 420 c 0,13,14
 471 424 471 424 467 424 c 0,15,16
 450 420 450 420 420.5 416 c 128,-1,17
 391 412 391 412 379 410 c 0,18,19
 373 410 373 410 373 403 c 0,20,21
 370 324 370 324 370 172 c 1,22,23
 375 56 375 56 375 13 c 2,24,-1
 375 -6 l 2,25,26
 375 -12 375 -12 368 -12 c 2,27,-1
 147 -12 l 2,28,29
 141 -12 141 -12 141 -6 c 0,30,31
 141 133 141 133 147 274 c 0,32,33
 153 481 153 481 162 948 c 0,34,35
 162 955 162 955 157 955 c 0,36,37
 156 955 156 955 153 954 c 0,38,39
 139 954 139 954 59 948 c 0,40,41
 51 948 51 948 51 956 c 0,42,43
 53 987 53 987 53 1042 c 0,44,45
 53 1057 53 1057 52 1087.5 c 128,-1,46
 51 1118 51 1118 51 1133 c 0,47,48
 51 1141 51 1141 57 1141 c 0,49,50
 225 1157 225 1157 334 1157 c 0,51,52
 606 1157 606 1157 721 1075 c 0,53,54
 852 985 852 985 852 821 c 0,55,56
 852 727 852 727 802.5 640 c 128,-1,57
 753 553 753 553 667 504 c 0,58,59
 663 503 663 503 663 500 c 256,60,61
 663 497 663 497 665 494 c 0,62,63
 706 426 706 426 811.5 275.5 c 128,-1,64
 917 125 917 125 956 59 c 0,0,1
598 786 m 2,65,-1
 598 791 l 2,66,67
 598 868 598 868 539 915 c 0,68,69
 483 958 483 958 412 958 c 2,70,-1
 397 958 l 2,71,72
 383 958 383 958 383 952 c 0,73,74
 379 731 379 731 375 625 c 0,75,76
 375 616 375 616 385 616 c 2,77,-1
 393 616 l 2,78,79
 422 616 422 616 462 628 c 0,80,81
 508 641 508 641 552 683 c 128,-1,82
 596 725 596 725 598 786 c 2,65,-1
EndSplineSet
Validated: 1
EndChar

StartChar: S
Encoding: 83 83 49
Width: 864
Flags: W
LayerCount: 2
Fore
SplineSet
792 305 m 0,0,1
 792 217 792 217 744 150.5 c 128,-1,2
 696 84 696 84 618.5 49 c 128,-1,3
 541 14 541 14 459 -2 c 128,-1,4
 377 -18 377 -18 295 -18 c 0,5,6
 239 -18 239 -18 129 -6 c 0,7,8
 123 -6 123 -6 123 0 c 0,9,10
 119 98 119 98 117 145 c 0,11,12
 115 162 115 162 111.5 190.5 c 128,-1,13
 108 219 108 219 108 233 c 0,14,15
 108 238 108 238 112 240 c 0,16,17
 113 241 113 241 115 241 c 256,18,19
 117 241 117 241 119 240 c 0,20,21
 205 197 205 197 334 197 c 0,22,23
 397 197 397 197 456.5 219.5 c 128,-1,24
 516 242 516 242 516 295 c 0,25,26
 516 367 516 367 418 412 c 1,27,28
 340 442 340 442 289.5 470 c 128,-1,29
 239 498 239 498 189 540 c 128,-1,30
 139 582 139 582 115.5 640 c 128,-1,31
 92 698 92 698 92 776 c 0,32,33
 92 852 92 852 137 922 c 0,34,35
 272 1139 272 1139 643 1139 c 0,36,37
 659 1139 659 1139 694 1137 c 128,-1,38
 729 1135 729 1135 747 1135 c 0,39,40
 754 1135 754 1135 754 1126 c 0,41,42
 751 1094 751 1094 745 999 c 0,43,44
 743 981 743 981 743 885 c 2,45,-1
 743 883 l 2,46,47
 743 879 743 879 737 879 c 0,48,49
 614 887 614 887 610 887 c 0,50,51
 573 887 573 887 532 880.5 c 128,-1,52
 491 874 491 874 446 861 c 128,-1,53
 401 848 401 848 372.5 820.5 c 128,-1,54
 344 793 344 793 344 754 c 0,55,56
 344 719 344 719 369.5 687 c 128,-1,57
 395 655 395 655 420.5 640 c 128,-1,58
 446 625 446 625 485 604 c 0,59,60
 493 600 493 600 549.5 573.5 c 128,-1,61
 606 547 606 547 623.5 536.5 c 128,-1,62
 641 526 641 526 684 497.5 c 128,-1,63
 727 469 727 469 743.5 445.5 c 128,-1,64
 760 422 760 422 776 384 c 128,-1,65
 792 346 792 346 792 305 c 0,0,1
EndSplineSet
Validated: 1
EndChar

StartChar: T
Encoding: 84 84 50
Width: 962
Flags: W
LayerCount: 2
Fore
SplineSet
921 1151 m 0,0,1
 914 1047 914 1047 898 885 c 0,2,3
 898 879 898 879 892 879 c 0,4,5
 863 877 863 877 724 873.5 c 128,-1,6
 585 870 585 870 556 870 c 0,7,8
 550 870 550 870 550 862 c 0,9,10
 556 809 556 809 648 -14 c 0,11,12
 648 -23 648 -23 642 -23 c 0,13,14
 620 -23 620 -23 576 -20.5 c 128,-1,15
 532 -18 532 -18 509 -18 c 2,16,-1
 382 -18 l 2,17,18
 374 -18 374 -18 374 -12 c 0,19,20
 370 74 370 74 366 181.5 c 128,-1,21
 362 289 362 289 357 373 c 0,22,23
 355 432 355 432 351 609 c 128,-1,24
 347 786 347 786 343 868 c 0,25,26
 343 877 343 877 335 877 c 0,27,28
 323 877 323 877 261.5 875.5 c 128,-1,29
 200 874 200 874 175 874 c 0,30,31
 126 874 126 874 58 868 c 0,32,33
 50 868 50 868 50 877 c 0,34,35
 48 897 48 897 48 922 c 0,36,37
 48 946 48 946 47 961.5 c 128,-1,38
 46 977 46 977 46 981 c 2,39,-1
 40 1049 l 2,40,41
 40 1057 40 1057 46 1057 c 0,42,43
 351 1092 351 1092 912 1159 c 0,44,45
 921 1159 921 1159 921 1151 c 0,0,1
EndSplineSet
Validated: 1
EndChar

StartChar: U
Encoding: 85 85 51
Width: 1001
Flags: W
LayerCount: 2
Fore
SplineSet
919 674 m 0,0,1
 919 557 919 557 912 471 c 128,-1,2
 905 385 905 385 879.5 287.5 c 128,-1,3
 854 190 854 190 808 130 c 128,-1,4
 762 70 762 70 680 29 c 128,-1,5
 598 -12 598 -12 483 -12 c 0,6,7
 346 -12 346 -12 264 89 c 128,-1,8
 182 190 182 190 158 348 c 0,9,10
 145 426 145 426 133 546 c 128,-1,11
 121 666 121 666 107.5 832.5 c 128,-1,12
 94 999 94 999 88 1073 c 0,13,14
 88 1081 88 1081 94 1081 c 0,15,16
 129 1087 129 1087 202.5 1106.5 c 128,-1,17
 276 1126 276 1126 334 1137 c 1,18,-1
 336 1137 l 2,19,20
 341 1137 341 1137 344 1130 c 0,21,22
 344 1104 344 1104 349 1030 c 128,-1,23
 354 956 354 956 354 915 c 0,24,25
 367 483 367 483 383 375 c 0,26,27
 391 319 391 319 425 276 c 128,-1,28
 459 233 459 233 518 233 c 0,29,30
 545 233 545 233 567.5 240.5 c 128,-1,31
 590 248 590 248 606.5 264.5 c 128,-1,32
 623 281 623 281 634 296 c 128,-1,33
 645 311 645 311 652 338 c 128,-1,34
 659 365 659 365 664.5 382 c 128,-1,35
 670 399 670 399 672 432 c 128,-1,36
 674 465 674 465 675 479.5 c 128,-1,37
 676 494 676 494 676 527 c 2,38,-1
 676 606 l 2,39,40
 676 832 676 832 637 1096 c 0,41,42
 637 1102 637 1102 643 1104 c 0,43,44
 680 1108 680 1108 891 1151 c 0,45,46
 899 1151 899 1151 899 1145 c 0,47,48
 919 915 919 915 919 674 c 0,0,1
EndSplineSet
Validated: 1
EndChar

StartChar: V
Encoding: 86 86 52
Width: 1087
Flags: W
LayerCount: 2
Fore
SplineSet
1062 1049 m 0,0,1
 990 903 990 903 879.5 680 c 128,-1,2
 769 457 769 457 682 278.5 c 128,-1,3
 595 100 595 100 519 -68 c 0,4,5
 516 -76 516 -76 512 -76 c 0,6,7
 509 -76 509 -76 505 -70 c 0,8,9
 458 27 458 27 282 450.5 c 128,-1,10
 106 874 106 874 32 1071 c 0,11,12
 32 1079 32 1079 36 1079 c 0,13,14
 98 1108 98 1108 259 1176 c 0,15,16
 261 1177 261 1177 263 1177 c 0,17,18
 267 1177 267 1177 270 1171 c 0,19,20
 300 1081 300 1081 385 811 c 128,-1,21
 470 541 470 541 513 422 c 0,22,23
 515 416 515 416 520 416 c 0,24,25
 524 416 524 416 526 422 c 0,26,27
 585 561 585 561 694.5 839.5 c 128,-1,28
 804 1118 804 1118 814 1145 c 0,29,30
 814 1149 814 1149 823 1149 c 0,31,32
 886 1126 886 1126 1058 1059 c 0,33,34
 1063 1056 1063 1056 1063 1053 c 0,35,36
 1063 1051 1063 1051 1062 1049 c 0,0,1
EndSplineSet
Validated: 1
EndChar

StartChar: W
Encoding: 87 87 53
Width: 1306
Flags: W
LayerCount: 2
Fore
SplineSet
1265 1077 m 0,0,1
 1232 895 1232 895 1144 498.5 c 128,-1,2
 1056 102 1056 102 1003 -80 c 0,3,4
 999 -90 999 -90 991 -90 c 256,5,6
 983 -90 983 -90 978 -82 c 0,7,8
 933 18 933 18 831 210.5 c 128,-1,9
 729 403 729 403 684 498 c 0,10,11
 680 505 680 505 676 505 c 256,12,13
 672 505 672 505 669 498 c 0,14,15
 653 449 653 449 589.5 221.5 c 128,-1,16
 526 -6 526 -6 493 -106 c 0,17,18
 488 -116 488 -116 482 -116 c 2,19,-1
 481 -116 l 2,20,21
 475 -115 475 -115 473 -109 c 0,22,23
 135 723 135 723 22 975 c 0,24,25
 22 983 22 983 24 985 c 0,26,27
 67 1010 67 1010 116 1032 c 0,28,29
 225 1083 225 1083 241 1094 c 0,30,31
 243 1095 243 1095 245 1095 c 0,32,33
 248 1095 248 1095 251 1090 c 0,34,35
 268 1036 268 1036 344.5 807 c 128,-1,36
 421 578 421 578 458 461 c 0,37,38
 460 455 460 455 466 455 c 0,39,40
 471 455 471 455 473 461 c 0,41,42
 487 504 487 504 559 739 c 0,43,44
 577 809 577 809 649 1038 c 0,45,46
 652 1046 652 1046 657 1046 c 2,47,-1
 659 1046 l 2,48,49
 665 1044 665 1044 669 1038 c 0,50,51
 714 930 714 930 806.5 714 c 128,-1,52
 899 498 899 498 911 469 c 0,53,54
 914 464 914 464 918 464 c 2,55,-1
 919 464 l 2,56,57
 923 465 923 465 925 471 c 0,58,59
 993 848 993 848 1030 1145 c 0,60,61
 1033 1150 1033 1150 1036 1150 c 0,62,63
 1038 1150 1038 1150 1040 1149 c 0,64,65
 1077 1137 1077 1137 1149.5 1117.5 c 128,-1,66
 1222 1098 1222 1098 1259 1085 c 0,67,68
 1265 1085 1265 1085 1265 1077 c 0,0,1
EndSplineSet
Validated: 1
EndChar

StartChar: X
Encoding: 88 88 54
Width: 964
Flags: W
LayerCount: 2
Fore
SplineSet
924 1049 m 0,0,1
 903 1012 903 1012 756 788 c 0,2,3
 750 778 750 778 692.5 692 c 128,-1,4
 635 606 635 606 606 559 c 1,5,-1
 606 553 l 1,6,7
 631 508 631 508 754 309 c 0,8,9
 782 262 782 262 820 201.5 c 128,-1,10
 858 141 858 141 882.5 101 c 128,-1,11
 907 61 907 61 917 45 c 0,12,13
 919 42 919 42 919 40 c 0,14,15
 919 35 919 35 911 35 c 0,16,17
 801 10 801 10 680 -6 c 0,18,19
 679 -7 679 -7 677 -7 c 2,20,-1
 676 -7 l 2,21,22
 674 -6 674 -6 674 -4 c 0,23,24
 645 55 645 55 577.5 175 c 128,-1,25
 510 295 510 295 481 352 c 0,26,27
 477 360 477 360 474 360 c 256,28,29
 471 360 471 360 469 352 c 0,30,31
 434 274 434 274 379 140 c 128,-1,32
 324 6 324 6 301 -45 c 0,33,34
 298 -50 298 -50 296 -50 c 256,35,36
 294 -50 294 -50 293 -49 c 0,37,38
 192 -25 192 -25 96 6 c 0,39,40
 89 6 89 6 89 10 c 0,41,42
 89 12 89 12 90 14 c 0,43,44
 135 109 135 109 225 285 c 128,-1,45
 315 461 315 461 352 535 c 1,46,-1
 352 541 l 1,47,-1
 315 602 l 2,48,49
 264 686 264 686 169 837.5 c 128,-1,50
 74 989 74 989 49 1028 c 0,51,52
 48 1030 48 1030 48 1032 c 0,53,54
 48 1035 48 1035 53 1038 c 0,55,56
 74 1047 74 1047 283 1145 c 0,57,58
 285 1146 285 1146 287 1146 c 0,59,60
 290 1146 290 1146 293 1141 c 0,61,62
 354 995 354 995 483 756 c 0,63,64
 487 751 487 751 491 751 c 256,65,66
 495 751 495 751 498 756 c 0,67,68
 534 823 534 823 603 965.5 c 128,-1,69
 672 1108 672 1108 704 1169 c 0,70,71
 704 1171 704 1171 708 1173 c 2,72,-1
 710 1173 l 2,73,74
 712 1173 712 1173 713 1171 c 0,75,76
 743 1157 743 1157 824 1112 c 128,-1,77
 905 1067 905 1067 922 1059 c 0,78,79
 924 1057 924 1057 925 1054 c 2,80,-1
 925 1052 l 2,81,82
 925 1050 925 1050 924 1049 c 0,0,1
EndSplineSet
Validated: 1
EndChar

StartChar: Y
Encoding: 89 89 55
Width: 1052
Flags: W
LayerCount: 2
Fore
SplineSet
1017 1040 m 0,0,1
 966 971 966 971 872 831 c 0,2,3
 816 752 816 752 724 606.5 c 128,-1,4
 632 461 632 461 599 412 c 0,5,6
 595 406 595 406 595 393 c 0,7,8
 593 319 593 319 590 174 c 128,-1,9
 587 29 587 29 587 -29 c 0,10,11
 587 -37 587 -37 579 -37 c 0,12,13
 405 -27 405 -27 351 -20 c 0,14,15
 344 -20 344 -20 344 -16 c 0,16,17
 344 -14 344 -14 345 -12 c 0,18,19
 374 274 374 274 374 406 c 0,20,21
 374 414 374 414 368 426 c 0,22,23
 339 489 339 489 250 643 c 128,-1,24
 161 797 161 797 138 836 c 0,25,26
 132 846 132 846 92 913.5 c 128,-1,27
 52 981 52 981 34 1016 c 0,28,29
 33 1017 33 1017 33 1019 c 2,30,-1
 33 1021 l 2,31,32
 34 1024 34 1024 36 1024 c 0,33,34
 71 1040 71 1040 153 1073 c 128,-1,35
 235 1106 235 1106 253 1114 c 0,36,37
 256 1116 256 1116 258 1116 c 0,38,39
 261 1116 261 1116 261 1112 c 0,40,41
 286 1051 286 1051 372 878 c 128,-1,42
 458 705 458 705 493 625 c 0,43,44
 497 619 497 619 500 619 c 256,45,46
 503 619 503 619 505 625 c 0,47,48
 521 653 521 653 771 1130 c 0,49,50
 771 1134 771 1134 775 1134 c 0,51,52
 777 1134 777 1134 780 1133 c 0,53,54
 896 1090 896 1090 1013 1053 c 0,55,56
 1018 1050 1018 1050 1018 1045 c 0,57,58
 1018 1043 1018 1043 1017 1040 c 0,0,1
EndSplineSet
Validated: 1
EndChar

StartChar: Z
Encoding: 90 90 56
Width: 1057
Flags: W
LayerCount: 2
Fore
SplineSet
790 15 m 0,1,2
 790 8 790 8 784 8 c 0,3,4
 226 -21 226 -21 86 -41 c 0,5,6
 84 -42 84 -42 81 -42 c 0,7,8
 76 -42 76 -42 76 -37 c 0,9,10
 76 -36 76 -36 77 -33 c 0,11,12
 234 336 234 336 479 885 c 0,13,14
 480 886 480 886 480 888 c 0,15,16
 480 891 480 891 479 892 c 0,17,18
 478 895 478 895 473 895 c 0,19,20
 124 860 124 860 69 852 c 0,21,22
 67 851 67 851 66 851 c 0,23,24
 63 851 63 851 62 853 c 0,25,26
 60 855 60 855 60 857 c 256,27,28
 60 859 60 859 61 861 c 0,29,30
 64 894 64 894 73 958 c 0,31,32
 75 972 75 972 90 1084 c 0,33,34
 90 1090 90 1090 96 1090 c 0,35,36
 124 1089 124 1089 803 1071 c 0,37,38
 809 1071 809 1071 809 1066 c 0,39,40
 809 1064 809 1064 808 1061 c 0,41,42
 673 747 673 747 426 208 c 0,43,44
 425 205 425 205 425 201 c 0,45,46
 425 196 425 196 429 196 c 0,47,48
 431 196 431 196 434 197 c 0,49,50
 447 200 447 200 570 224 c 0,51,52
 602 230 602 230 705 249 c 0,53,54
 778 263 778 263 811 269 c 0,55,56
 820 269 820 269 820 265 c 0,57,58
 820 263 820 263 819 261 c 0,59,0
 800 174 800 174 790 15 c 0,1,2
EndSplineSet
Validated: 1
EndChar

StartChar: backslash
Encoding: 92 92 57
Width: 669
Flags: W
LayerCount: 2
Fore
SplineSet
44 1221 m 0,0,1
 43 1223 43 1223 43 1224 c 0,2,3
 43 1228 43 1228 50 1231 c 0,4,5
 83 1235 83 1235 152.5 1240 c 128,-1,6
 222 1245 222 1245 249 1251 c 0,7,8
 253 1251 253 1251 257 1247 c 0,9,10
 290 1169 290 1169 380 905 c 128,-1,11
 470 641 470 641 561 365.5 c 128,-1,12
 652 90 652 90 667 49 c 0,13,14
 667 41 667 41 663 41 c 0,15,16
 605 16 605 16 560 2 c 0,17,18
 559 1 559 1 557 1 c 256,19,20
 555 1 555 1 552 6 c 0,21,22
 527 68 527 68 435 296 c 128,-1,23
 343 524 343 524 292 647 c 0,24,25
 95 1128 95 1128 44 1221 c 0,0,1
EndSplineSet
Validated: 1
EndChar

StartChar: underscore
Encoding: 95 95 58
Width: 768
Flags: W
LayerCount: 2
Fore
SplineSet
719 -100 m 2,0,-1
 719 -162 l 2,1,2
 719 -168 719 -168 711 -168 c 2,3,-1
 63 -166 l 2,4,5
 61 -166 61 -166 55 -160 c 1,6,-1
 49 -104 l 2,7,8
 49 -97 49 -97 53 -97 c 0,9,10
 55 -97 55 -97 57 -98 c 2,11,-1
 223 -100 l 2,12,13
 516 -100 516 -100 713 -92 c 0,14,15
 719 -92 719 -92 719 -100 c 2,0,-1
EndSplineSet
Validated: 1
EndChar

StartChar: a
Encoding: 97 97 59
Width: 788
Flags: W
LayerCount: 2
Fore
SplineSet
696 506 m 0,0,1
 696 485 696 485 689 375 c 0,2,3
 683 303 683 303 669 170 c 128,-1,4
 655 37 655 37 651 -6 c 0,5,6
 651 -12 651 -12 644 -12 c 0,7,8
 626 -16 626 -16 481 -33 c 0,9,10
 480 -34 480 -34 479 -34 c 256,11,12
 478 -34 478 -34 477 -33 c 0,13,14
 474 -31 474 -31 474 -27 c 2,15,-1
 474 70 l 2,16,17
 474 79 474 79 469 79 c 0,18,19
 466 79 466 79 462 76 c 0,20,21
 378 16 378 16 309 16 c 0,22,23
 206 16 206 16 138.5 75.5 c 128,-1,24
 71 135 71 135 71 236 c 0,25,26
 71 340 71 340 156 406.5 c 128,-1,27
 241 473 241 473 350 473 c 0,28,29
 423 473 423 473 474 453 c 0,30,31
 476 452 476 452 478 452 c 0,32,33
 482 452 482 452 483 455 c 0,34,35
 485 459 485 459 487 467 c 0,36,37
 489 479 489 479 489 498 c 0,38,39
 489 547 489 547 459 580.5 c 128,-1,40
 429 614 429 614 382 614 c 0,41,42
 259 614 259 614 141 524 c 0,43,44
 137 523 137 523 135 523 c 0,45,46
 130 523 130 523 130 528 c 0,47,48
 98 635 98 635 79 686 c 0,49,50
 78 687 78 687 78 688 c 0,51,52
 78 690 78 690 81 694 c 0,53,54
 229 811 229 811 397 811 c 0,55,56
 536 811 536 811 616 727 c 128,-1,57
 696 643 696 643 696 506 c 0,0,1
479 283 m 0,58,59
 479 307 479 307 455 322 c 0,60,61
 434 334 434 334 413 334 c 2,62,-1
 407 334 l 1,63,64
 249 328 249 328 249 231 c 0,65,66
 249 207 249 207 280 193.5 c 128,-1,67
 311 180 311 180 345 180 c 0,68,69
 393 180 393 180 436 208 c 128,-1,70
 479 236 479 236 479 283 c 0,58,59
EndSplineSet
Validated: 1
EndChar

StartChar: b
Encoding: 98 98 60
Width: 907
Flags: W
LayerCount: 2
Fore
SplineSet
835 420 m 0,0,1
 835 252 835 252 735 137.5 c 128,-1,2
 635 23 635 23 463 23 c 0,3,4
 393 23 393 23 317 55 c 0,5,6
 314 57 314 57 312 57 c 0,7,8
 307 57 307 57 307 49 c 2,9,-1
 307 -53 l 2,10,11
 307 -61 307 -61 299 -61 c 0,12,13
 164 -35 164 -35 151 -31 c 1,14,-1
 145 -25 l 1,15,16
 96 614 96 614 96 1231 c 0,17,18
 96 1237 96 1237 102 1239 c 0,19,20
 276 1278 276 1278 323 1290 c 0,21,22
 325 1291 325 1291 327 1291 c 256,23,24
 329 1291 329 1291 331 1290 c 256,25,26
 333 1289 333 1289 333 1287 c 256,27,28
 333 1285 333 1285 332 1284 c 0,29,30
 325 1078 325 1078 325 865 c 2,31,-1
 325 770 l 2,32,33
 325 762 325 762 330 762 c 0,34,35
 332 762 332 762 336 764 c 0,36,37
 383 797 383 797 479 797 c 0,38,39
 635 797 635 797 735 682 c 128,-1,40
 835 567 835 567 835 420 c 0,0,1
616 387 m 0,41,42
 616 446 616 446 574 507.5 c 128,-1,43
 532 569 532 569 471 569 c 0,44,45
 322 569 322 569 322 396 c 0,46,47
 322 385 322 385 323 373 c 0,48,49
 329 285 329 285 357 242 c 128,-1,50
 385 199 385 199 458 199 c 0,51,52
 530 199 530 199 573 258 c 128,-1,53
 616 317 616 317 616 387 c 0,41,42
EndSplineSet
Validated: 1
EndChar

StartChar: c
Encoding: 99 99 61
Width: 784
Flags: W
LayerCount: 2
Fore
SplineSet
747 96 m 1,0,-1
 745 90 l 1,1,2
 626 -29 626 -29 425 -29 c 0,3,4
 255 -29 255 -29 163 104.5 c 128,-1,5
 71 238 71 238 71 395 c 0,6,7
 71 557 71 557 179.5 678 c 128,-1,8
 288 799 288 799 454 799 c 0,9,10
 573 799 573 799 692 750 c 0,11,12
 696 745 696 745 696 741 c 0,13,14
 689 713 689 713 674 652.5 c 128,-1,15
 659 592 659 592 655 565 c 0,16,17
 651 559 651 559 644 559 c 0,18,19
 546 592 546 592 501 592 c 0,20,21
 403 592 403 592 350.5 527.5 c 128,-1,22
 298 463 298 463 298 365 c 0,23,24
 298 279 298 279 352.5 219.5 c 128,-1,25
 407 160 407 160 487 160 c 0,26,27
 583 160 583 160 685 254 c 0,28,29
 688 256 688 256 691 256 c 0,30,31
 696 256 696 256 698 250 c 0,32,33
 704 227 704 227 723.5 171 c 128,-1,34
 743 115 743 115 747 96 c 1,0,-1
EndSplineSet
Validated: 1
EndChar

StartChar: d
Encoding: 100 100 62
Width: 878
Flags: W
LayerCount: 2
Fore
SplineSet
776 473 m 0,0,1
 776 387 776 387 774.5 292 c 128,-1,2
 773 197 773 197 771 79 c 128,-1,3
 769 -39 769 -39 769 -102 c 0,4,5
 769 -109 769 -109 761 -109 c 0,6,7
 737 -104 737 -104 682.5 -97 c 128,-1,8
 628 -90 628 -90 603 -88 c 0,9,10
 597 -88 597 -88 597 -82 c 0,11,12
 591 -49 591 -49 587 45 c 0,13,14
 587 52 587 52 582 52 c 0,15,16
 580 52 580 52 577 51 c 0,17,18
 468 4 468 4 382 4 c 0,19,20
 237 4 237 4 154 102.5 c 128,-1,21
 71 201 71 201 71 340 c 0,22,23
 71 498 71 498 169.5 614.5 c 128,-1,24
 268 731 268 731 448 731 c 0,25,26
 481 731 481 731 546 723 c 0,27,28
 548 722 548 722 550 722 c 256,29,30
 552 722 552 722 553 723 c 0,31,32
 555 724 555 724 555 726 c 0,33,34
 555 727 555 727 554 729 c 0,35,36
 552 756 552 756 547 848 c 128,-1,37
 542 940 542 940 538 979 c 0,38,39
 532 1026 532 1026 519.5 1119 c 128,-1,40
 507 1212 507 1212 501 1260 c 0,41,42
 501 1268 501 1268 509 1268 c 2,43,-1
 749 1255 l 2,44,45
 755 1255 755 1255 755 1249 c 0,46,47
 776 924 776 924 776 473 c 0,0,1
579 231 m 1,48,49
 580 256 580 256 580 285 c 0,50,51
 580 375 580 375 571 508 c 1,52,-1
 571 512 l 1,53,54
 524 563 524 563 458 563 c 0,55,56
 372 563 372 563 331 502.5 c 128,-1,57
 290 442 290 442 290 354 c 0,58,59
 290 188 290 188 450 188 c 0,60,61
 522 188 522 188 577 225 c 1,62,-1
 579 231 l 1,48,49
EndSplineSet
Validated: 1
EndChar

StartChar: e
Encoding: 101 101 63
Width: 811
Flags: W
LayerCount: 2
Fore
SplineSet
761 408 m 0,0,1
 761 401 761 401 755 401 c 0,2,3
 583 383 583 383 335 362 c 0,4,5
 329 362 329 362 327 356 c 2,6,-1
 327 351 l 2,7,8
 327 278 327 278 387 239 c 0,9,10
 434 208 434 208 487 208 c 0,11,12
 503 208 503 208 520 211 c 0,13,14
 591 221 591 221 646 260 c 0,15,16
 648 261 648 261 650 261 c 0,17,18
 654 261 654 261 657 256 c 0,19,20
 679 199 679 199 720 84 c 0,21,22
 720 78 720 78 716 76 c 0,23,24
 614 12 614 12 458 12 c 0,25,26
 294 12 294 12 202 121.5 c 128,-1,27
 110 231 110 231 89 395 c 0,28,29
 86 424 86 424 86 452 c 0,30,31
 86 575 86 575 150 680 c 0,32,33
 229 809 229 809 386 827 c 0,34,35
 414 830 414 830 440 830 c 0,36,37
 574 830 574 830 649 740 c 0,38,39
 737 631 737 631 757 453 c 0,40,41
 761 424 761 424 761 408 c 0,0,1
558 526 m 0,42,43
 531 658 531 658 440 658 c 0,44,45
 431 658 431 658 421 657 c 0,46,47
 372 651 372 651 340 606 c 0,48,49
 309 564 309 564 309 511 c 2,50,-1
 309 504 l 2,51,52
 309 498 309 498 317 498 c 0,53,54
 433 504 433 504 552 518 c 0,55,56
 558 518 558 518 558 526 c 0,42,43
EndSplineSet
Validated: 1
EndChar

StartChar: f
Encoding: 102 102 64
Width: 788
Flags: W
LayerCount: 2
Fore
SplineSet
759 1026 m 0,0,1
 759 1020 759 1020 753 1014 c 0,2,3
 743 1006 743 1006 723.5 992.5 c 128,-1,4
 704 979 704 979 698 973 c 0,5,6
 687 963 687 963 664.5 947.5 c 128,-1,7
 642 932 642 932 632 922 c 0,8,9
 629 919 629 919 626 919 c 0,10,11
 622 919 622 919 620 926 c 0,12,13
 609 973 609 973 603 997.5 c 128,-1,14
 597 1022 597 1022 571.5 1051.5 c 128,-1,15
 546 1081 546 1081 507 1081 c 0,16,17
 470 1081 470 1081 437.5 1055.5 c 128,-1,18
 405 1030 405 1030 399 997 c 0,19,20
 392 958 392 958 388 838 c 1,21,-1
 388 684 l 2,22,23
 388 676 388 676 396 676 c 0,24,25
 560 688 560 688 609 690 c 0,26,27
 616 690 616 690 616 684 c 0,28,29
 614 637 614 637 606.5 577.5 c 128,-1,30
 599 518 599 518 597 500 c 0,31,32
 597 494 597 494 591 494 c 0,33,34
 503 494 503 494 405 500 c 0,35,36
 396 500 396 500 396 492 c 0,37,38
 395 482 395 482 395 466 c 0,39,40
 395 438 395 438 399 391 c 0,41,42
 407 164 407 164 417 18 c 0,43,44
 418 18 418 18 418 17 c 0,45,46
 418 15 418 15 413 10 c 0,47,48
 372 -2 372 -2 296 -20.5 c 128,-1,49
 220 -39 220 -39 202 -43 c 0,50,51
 200 -44 200 -44 198 -44 c 0,52,53
 194 -44 194 -44 194 -37 c 0,54,55
 194 -10 194 -10 195 84 c 128,-1,56
 196 178 196 178 197 261 c 2,57,-1
 197 324 l 2,58,59
 197 395 197 395 196 496 c 0,60,61
 196 502 196 502 188 502 c 2,62,-1
 42 502 l 2,63,64
 34 502 34 502 34 508 c 0,65,66
 34 575 34 575 40 643 c 0,67,68
 40 649 40 649 46 649 c 0,69,70
 118 653 118 653 181 662 c 0,71,72
 188 662 188 662 188 670 c 2,73,-1
 190 936 l 2,74,75
 192 1075 192 1075 272.5 1168.5 c 128,-1,76
 353 1262 353 1262 491 1262 c 0,77,78
 579 1262 579 1262 651.5 1218 c 128,-1,79
 724 1174 724 1174 745 1092 c 0,80,81
 759 1044 759 1044 759 1026 c 0,0,1
EndSplineSet
Validated: 1
EndChar

StartChar: g
Encoding: 103 103 65
Width: 927
Flags: W
LayerCount: 2
Fore
SplineSet
855 991 m 0,0,1
 849 864 849 864 847 809 c 0,2,3
 847 802 847 802 842 802 c 0,4,5
 840 802 840 802 837 803 c 0,6,7
 835 805 835 805 820.5 818 c 128,-1,8
 806 831 806 831 794 840 c 0,9,10
 763 860 763 860 724 860 c 0,11,12
 692 860 692 860 661 836.5 c 128,-1,13
 630 813 630 813 624 793 c 0,14,15
 622 789 622 789 622 786 c 0,16,17
 622 781 622 781 626 780 c 0,18,19
 694 743 694 743 737 670.5 c 128,-1,20
 780 598 780 598 780 516 c 0,21,22
 780 317 780 317 536 211 c 0,23,24
 495 197 495 197 423 168 c 0,25,26
 345 133 345 133 341 115 c 1,27,-1
 341 112 l 2,28,29
 341 97 341 97 403 88 c 0,30,31
 468 82 468 82 493 76 c 0,32,33
 663 47 663 47 755 -22.5 c 128,-1,34
 847 -92 847 -92 847 -248 c 0,35,36
 847 -401 847 -401 723 -485 c 128,-1,37
 599 -569 599 -569 442 -569 c 0,38,39
 300 -569 300 -569 199 -495.5 c 128,-1,40
 98 -422 98 -422 85 -283 c 0,41,42
 84 -273 84 -273 84 -263 c 0,43,44
 84 -140 84 -140 200 -53 c 0,45,46
 207 -49 207 -49 207 -46 c 256,47,48
 207 -43 207 -43 200 -41 c 0,49,50
 141 -18 141 -18 106 15.5 c 128,-1,51
 71 49 71 49 71 82 c 0,52,53
 71 174 71 174 311 240 c 0,54,55
 319 244 319 244 319 247 c 256,56,57
 319 250 319 250 311 252 c 0,58,59
 208 279 208 279 157 362.5 c 128,-1,60
 106 446 106 446 106 524 c 0,61,62
 106 651 106 651 193 733 c 128,-1,63
 280 815 280 815 411 815 c 0,64,65
 425 815 425 815 462 811 c 0,66,67
 466 811 466 811 470 815 c 0,68,69
 479 829 479 829 485 854 c 1,70,71
 515 926 515 926 582 983 c 128,-1,72
 649 1040 649 1040 720 1040 c 0,73,74
 812 1040 812 1040 847 1006 c 0,75,76
 855 997 855 997 855 991 c 0,0,1
606 508 m 0,77,78
 606 569 606 569 559.5 605 c 128,-1,79
 513 641 513 641 444 641 c 0,80,81
 393 641 393 641 345.5 609.5 c 128,-1,82
 298 578 298 578 298 526 c 0,83,84
 298 465 298 465 345.5 429 c 128,-1,85
 393 393 393 393 462 393 c 0,86,87
 515 393 515 393 560.5 425 c 128,-1,88
 606 457 606 457 606 508 c 0,77,78
612 -250 m 0,89,90
 612 -111 612 -111 440 -102 c 1,91,-1
 430 -102 l 2,92,93
 370 -102 370 -102 322 -146 c 0,94,95
 270 -195 270 -195 270 -260 c 0,96,97
 270 -319 270 -319 329 -362 c 0,98,99
 384 -403 384 -403 442 -403 c 2,100,-1
 450 -403 l 2,101,102
 515 -401 515 -401 563.5 -358 c 128,-1,103
 612 -315 612 -315 612 -250 c 0,89,90
EndSplineSet
Validated: 1
EndChar

StartChar: h
Encoding: 104 104 66
Width: 933
Flags: W
LayerCount: 2
Fore
SplineSet
839 555 m 0,0,1
 842 509 842 509 842 465 c 0,2,3
 842 340 842 340 819 223 c 0,4,5
 807 164 807 164 745 -57 c 0,6,7
 745 -63 745 -63 742 -63 c 0,8,9
 740 -63 740 -63 737 -61 c 0,10,11
 719 -55 719 -55 654.5 -39 c 128,-1,12
 590 -23 590 -23 565 -14 c 0,13,14
 561 -14 561 -14 561 -6 c 0,15,16
 631 260 631 260 631 401 c 0,17,18
 631 625 631 625 522 625 c 0,19,20
 471 625 471 625 411.5 566.5 c 128,-1,21
 352 508 352 508 348 455 c 0,22,23
 336 313 336 313 323 -72 c 0,24,25
 323 -78 323 -78 317 -78 c 0,26,27
 295 -78 295 -78 255 -77 c 128,-1,28
 215 -76 215 -76 194 -76 c 0,29,30
 188 -76 188 -76 173.5 -75 c 128,-1,31
 159 -74 159 -74 151 -74 c 0,32,33
 145 -74 145 -74 145 -68 c 0,34,35
 143 147 143 147 136 369.5 c 128,-1,36
 129 592 129 592 114.5 932 c 128,-1,37
 100 1272 100 1272 96 1368 c 0,38,39
 96 1372 96 1372 100 1376 c 0,40,41
 133 1386 133 1386 206.5 1404.5 c 128,-1,42
 280 1423 280 1423 313 1434 c 0,43,44
 321 1434 321 1434 321 1425 c 0,45,46
 321 1360 321 1360 325 881 c 0,47,48
 329 727 329 727 329 715 c 0,49,50
 329 705 329 705 333 705 c 0,51,52
 336 705 336 705 342 711 c 0,53,54
 444 844 444 844 581 844 c 0,55,56
 696 844 696 844 765.5 761 c 128,-1,57
 835 678 835 678 839 555 c 0,0,1
EndSplineSet
Validated: 1
EndChar

StartChar: i
Encoding: 105 105 67
Width: 483
Flags: W
LayerCount: 2
Fore
SplineSet
360 1067 m 0,0,1
 360 1008 360 1008 316 966 c 128,-1,2
 272 924 272 924 213 924 c 0,3,4
 162 924 162 924 124 971 c 128,-1,5
 86 1018 86 1018 86 1069 c 0,6,7
 86 1122 86 1122 127 1163 c 128,-1,8
 168 1204 168 1204 221 1204 c 0,9,10
 272 1204 272 1204 316 1161 c 128,-1,11
 360 1118 360 1118 360 1067 c 0,0,1
381 788 m 0,12,13
 369 438 369 438 354 -6 c 0,14,15
 354 -12 354 -12 348 -12 c 0,16,17
 317 -14 317 -14 249.5 -17 c 128,-1,18
 182 -20 182 -20 160 -23 c 0,19,20
 152 -23 152 -23 152 -16 c 0,21,22
 149 10 149 10 149 61 c 2,23,-1
 147 106 l 2,24,25
 147 154 147 154 145 230.5 c 128,-1,26
 143 307 143 307 140 396 c 128,-1,27
 137 485 137 485 135 589.5 c 128,-1,28
 133 694 133 694 131 778 c 0,29,30
 131 786 131 786 139 786 c 0,31,32
 182 788 182 788 268 788 c 0,33,34
 287 791 287 791 320.5 793 c 128,-1,35
 354 795 354 795 373 795 c 0,36,37
 375 796 375 796 377 796 c 0,38,39
 381 796 381 796 381 788 c 0,12,13
EndSplineSet
Validated: 1
EndChar

StartChar: j
Encoding: 106 106 68
Width: 520
Flags: W
LayerCount: 2
Fore
SplineSet
380 1112 m 0,0,1
 380 1049 380 1049 326.5 1003.5 c 128,-1,2
 273 958 273 958 210 958 c 0,3,4
 156 958 156 958 114 1000 c 128,-1,5
 72 1042 72 1042 72 1096 c 0,6,7
 72 1157 72 1157 122.5 1206 c 128,-1,8
 173 1255 173 1255 234 1255 c 0,9,10
 291 1255 291 1255 335.5 1211 c 128,-1,11
 380 1167 380 1167 380 1112 c 0,0,1
427 -25 m 1,12,-1
 427 -41 l 2,13,14
 427 -212 427 -212 347 -311 c 0,15,16
 310 -356 310 -356 245.5 -385 c 128,-1,17
 181 -414 181 -414 119 -414 c 0,18,19
 -57 -410 -57 -410 -147 -307 c 0,20,21
 -151 -303 -151 -303 -151 -299 c 0,22,23
 -151 -293 -151 -293 -145 -285 c 0,24,25
 -126 -266 -126 -266 -94 -225 c 0,26,27
 -81 -211 -81 -211 -46 -162 c 0,28,29
 -42 -158 -42 -158 -40 -158 c 256,30,31
 -38 -158 -38 -158 -36 -160 c 0,32,33
 -22 -170 -22 -170 -0.5 -190.5 c 128,-1,34
 21 -211 21 -211 33.5 -220 c 128,-1,35
 46 -229 46 -229 69 -235 c 0,36,37
 86 -240 86 -240 107 -240 c 2,38,-1
 121 -240 l 1,39,40
 167 -236 167 -236 192.5 -183.5 c 128,-1,41
 218 -131 218 -131 218 -74 c 2,42,-1
 218 23 l 1,43,-1
 156 754 l 2,44,45
 156 762 156 762 162 762 c 0,46,47
 304 801 304 801 390 823 c 0,48,49
 398 823 398 823 398 817 c 0,50,51
 404 635 404 635 406 586 c 0,52,53
 406 561 406 561 409 492.5 c 128,-1,54
 412 424 412 424 416 287 c 128,-1,55
 420 150 420 150 427 -25 c 1,12,-1
EndSplineSet
Validated: 1
EndChar

StartChar: k
Encoding: 107 107 69
Width: 927
Flags: W
LayerCount: 2
Fore
SplineSet
895 135 m 1,0,-1
 895 127 l 1,1,2
 872 102 872 102 818 48 c 128,-1,3
 764 -6 764 -6 737 -39 c 0,4,5
 734 -42 734 -42 732 -42 c 0,6,7
 728 -42 728 -42 725 -37 c 0,8,9
 667 45 667 45 460 414 c 0,10,11
 458 420 458 420 454 420 c 0,12,13
 452 420 452 420 448 416 c 0,14,15
 366 330 366 330 348 299 c 0,16,17
 342 291 342 291 342 281 c 2,18,-1
 342 245 l 2,19,20
 342 219 342 219 343 190.5 c 128,-1,21
 344 162 344 162 345 134 c 128,-1,22
 346 106 346 106 346 88 c 2,23,-1
 346 70 l 2,24,25
 346 -16 346 -16 348 -33 c 0,26,27
 348 -41 348 -41 340 -41 c 0,28,29
 290 -43 290 -43 231 -46 c 128,-1,30
 172 -49 172 -49 151 -49 c 0,31,32
 143 -49 143 -49 143 -41 c 0,33,34
 137 131 137 131 125.5 470 c 128,-1,35
 114 809 114 809 108 977 c 0,36,37
 106 1012 106 1012 104 1102 c 128,-1,38
 102 1192 102 1192 102 1227 c 0,39,40
 102 1231 102 1231 106 1235 c 0,41,42
 137 1247 137 1247 222 1267.5 c 128,-1,43
 307 1288 307 1288 321 1294 c 0,44,45
 324 1295 324 1295 326 1295 c 0,46,47
 331 1295 331 1295 331 1288 c 0,48,49
 333 1239 333 1239 333 996 c 0,50,51
 333 752 333 752 335 561 c 0,52,53
 335 552 335 552 340 552 c 0,54,55
 343 552 343 552 348 555 c 0,56,57
 403 610 403 610 456.5 689 c 128,-1,58
 510 768 510 768 532.5 809 c 128,-1,59
 555 850 555 850 612 961 c 0,60,61
 615 966 615 966 618 966 c 0,62,63
 620 966 620 966 622 965 c 0,64,65
 684 936 684 936 821 866 c 0,66,67
 825 865 825 865 825 862 c 256,68,69
 825 859 825 859 823 856 c 0,70,71
 784 799 784 799 708 711 c 0,72,73
 690 688 690 688 650 642 c 128,-1,74
 610 596 610 596 591 573 c 0,75,76
 589 571 589 571 589 565 c 0,77,78
 630 504 630 504 752 335 c 128,-1,79
 874 166 874 166 895 135 c 1,0,-1
EndSplineSet
Validated: 1
EndChar

StartChar: l
Encoding: 108 108 70
Width: 460
Flags: W
LayerCount: 2
Fore
SplineSet
352 1286 m 0,0,1
 334 421 334 421 334 112 c 0,2,3
 334 53 334 53 335 14 c 0,4,5
 335 8 335 8 327 8 c 2,6,-1
 147 8 l 2,7,8
 141 8 141 8 141 14 c 0,9,10
 139 57 139 57 137 105.5 c 128,-1,11
 135 154 135 154 133 213 c 128,-1,12
 131 272 131 272 129 305 c 0,13,14
 102 1212 102 1212 102 1227 c 0,15,16
 102 1239 102 1239 116 1243 c 0,17,18
 141 1249 141 1249 224 1266.5 c 128,-1,19
 307 1284 307 1284 342 1292 c 0,20,21
 345 1293 345 1293 347 1293 c 0,22,23
 352 1293 352 1293 352 1286 c 0,0,1
EndSplineSet
Validated: 1
EndChar

StartChar: m
Encoding: 109 109 71
Width: 1236
Flags: W
LayerCount: 2
Fore
SplineSet
1134 27 m 0,0,1
 1134 20 1134 20 1128 18 c 0,2,3
 1026 -6 1026 -6 950 -31 c 0,4,5
 942 -31 942 -31 942 -23 c 0,6,7
 942 37 942 37 943 185 c 2,8,-1
 943 273 l 2,9,10
 943 352 943 352 942 391 c 0,11,12
 933 578 933 578 858 578 c 0,13,14
 817 578 817 578 776 541 c 128,-1,15
 735 504 735 504 733 469 c 0,16,17
 731 459 731 459 731 379 c 0,18,19
 731 330 731 330 735 198 c 128,-1,20
 739 66 739 66 739 4 c 0,21,22
 739 -2 739 -2 731 -2 c 0,23,24
 712 -2 712 -2 678.5 0 c 128,-1,25
 645 2 645 2 628 2 c 2,26,-1
 548 2 l 2,27,28
 540 2 540 2 540 10 c 2,29,-1
 540 109 l 2,30,31
 540 158 540 158 543 282 c 0,32,33
 545 356 545 356 545 410 c 0,34,35
 545 446 545 446 544 473 c 0,36,37
 544 514 544 514 526.5 555 c 128,-1,38
 509 596 509 596 475 596 c 0,39,40
 432 596 432 596 382.5 548 c 128,-1,41
 333 500 333 500 313 451 c 0,42,43
 309 438 309 438 309 432 c 0,44,45
 319 172 319 172 323 121 c 0,46,47
 323 115 323 115 325 78 c 128,-1,48
 327 41 327 41 329 10 c 0,49,50
 329 6 329 6 321 2 c 1,51,52
 264 2 264 2 149 -6 c 0,53,54
 143 -6 143 -6 143 0 c 0,55,56
 133 139 133 139 121.5 432 c 128,-1,57
 110 725 110 725 106 811 c 0,58,59
 106 819 106 819 112 819 c 0,60,61
 139 825 139 825 200.5 840.5 c 128,-1,62
 262 856 262 856 292 864 c 0,63,64
 301 864 301 864 301 858 c 0,65,66
 303 827 303 827 304 766 c 128,-1,67
 305 705 305 705 305 686 c 0,68,69
 307 678 307 678 311 678 c 0,70,71
 314 678 314 678 317 682 c 0,72,73
 446 807 446 807 536 807 c 0,74,75
 579 807 579 807 613 782.5 c 128,-1,76
 647 758 647 758 661 732.5 c 128,-1,77
 675 707 675 707 698 657 c 0,78,79
 700 651 700 651 704 651 c 0,80,81
 706 651 706 651 710 655 c 0,82,83
 815 786 815 786 899 786 c 0,84,85
 948 786 948 786 992 758.5 c 128,-1,86
 1036 731 1036 731 1060 688 c 0,87,88
 1110 602 1110 602 1120 475 c 0,89,90
 1126 408 1126 408 1129 335 c 128,-1,91
 1132 262 1132 262 1132 167 c 256,92,93
 1132 72 1132 72 1134 27 c 0,0,1
EndSplineSet
Validated: 1
EndChar

StartChar: n
Encoding: 110 110 72
Width: 868
Flags: W
LayerCount: 2
Fore
SplineSet
766 311 m 0,0,1
 766 125 766 125 739 -35 c 0,2,3
 739 -41 739 -41 733 -41 c 0,4,5
 684 -45 684 -45 573 -49 c 0,6,7
 565 -49 565 -49 565 -41 c 0,8,9
 565 -23 565 -23 572 48 c 128,-1,10
 579 119 579 119 579 152 c 0,11,12
 579 154 579 154 581 189.5 c 128,-1,13
 583 225 583 225 583 243 c 0,14,15
 583 260 583 260 584 301 c 2,16,-1
 584 321 l 2,17,18
 584 348 584 348 582 368 c 0,19,20
 579 393 579 393 575 430 c 128,-1,21
 571 467 571 467 562 489.5 c 128,-1,22
 553 512 553 512 540.5 534.5 c 128,-1,23
 528 557 528 557 509.5 568.5 c 128,-1,24
 491 580 491 580 467 580 c 0,25,26
 428 580 428 580 391 548 c 128,-1,27
 354 516 354 516 340 479 c 0,28,29
 333 463 333 463 325 395 c 0,30,31
 319 332 319 332 305.5 205 c 128,-1,32
 292 78 292 78 284 14 c 0,33,34
 284 8 284 8 278 8 c 0,35,36
 223 6 223 6 110 6 c 0,37,38
 102 6 102 6 102 14 c 0,39,40
 112 156 112 156 114 170 c 0,41,42
 143 537 143 537 143 887 c 1,43,44
 149 893 149 893 151 893 c 0,45,46
 192 897 192 897 358 907 c 0,47,48
 364 907 364 907 364 899 c 0,49,50
 364 852 364 852 358 786 c 0,51,52
 357 784 357 784 357 783 c 0,53,54
 357 781 357 781 359 780 c 256,55,56
 361 779 361 779 362 779 c 0,57,58
 364 779 364 779 366 780 c 0,59,60
 430 805 430 805 481 805 c 0,61,62
 548 805 548 805 616 763 c 128,-1,63
 684 721 684 721 710 659 c 0,64,65
 766 532 766 532 766 311 c 0,0,1
EndSplineSet
Validated: 1
EndChar

StartChar: o
Encoding: 111 111 73
Width: 856
Flags: W
LayerCount: 2
Fore
SplineSet
784 389 m 0,0,1
 784 293 784 293 750 204 c 128,-1,2
 716 115 716 115 630 46 c 128,-1,3
 544 -23 544 -23 421 -23 c 0,4,5
 331 -23 331 -23 259.5 22.5 c 128,-1,6
 188 68 188 68 149 138.5 c 128,-1,7
 110 209 110 209 90.5 281.5 c 128,-1,8
 71 354 71 354 71 422 c 0,9,10
 71 514 71 514 109 610.5 c 128,-1,11
 147 707 147 707 233 781.5 c 128,-1,12
 319 856 319 856 433 856 c 0,13,14
 513 856 513 856 575.5 824.5 c 128,-1,15
 638 793 638 793 676 742.5 c 128,-1,16
 714 692 714 692 739.5 627.5 c 128,-1,17
 765 563 765 563 774.5 504.5 c 128,-1,18
 784 446 784 446 784 389 c 0,0,1
581 412 m 0,19,20
 581 494 581 494 544 571.5 c 128,-1,21
 507 649 507 649 425 649 c 0,22,23
 370 649 370 649 336 605 c 128,-1,24
 302 561 302 561 293 516 c 128,-1,25
 284 471 284 471 284 426 c 0,26,27
 284 387 284 387 285 362.5 c 128,-1,28
 286 338 286 338 295 296 c 128,-1,29
 304 254 304 254 319.5 228.5 c 128,-1,30
 335 203 335 203 368 182.5 c 128,-1,31
 401 162 401 162 448 162 c 0,32,33
 501 162 501 162 533 213 c 128,-1,34
 565 264 565 264 573 314.5 c 128,-1,35
 581 365 581 365 581 412 c 0,19,20
EndSplineSet
Validated: 1
EndChar

StartChar: p
Encoding: 112 112 74
Width: 948
Flags: W
LayerCount: 2
Fore
SplineSet
880 391 m 0,0,1
 880 217 880 217 786 101.5 c 128,-1,2
 692 -14 692 -14 520 -14 c 0,3,4
 407 -14 407 -14 335 25 c 0,5,6
 333 26 333 26 331 26 c 0,7,8
 325 26 325 26 325 16 c 2,9,-1
 325 -9 l 2,10,11
 325 -100 325 -100 313 -255 c 0,12,13
 299 -432 299 -432 286 -510 c 0,14,15
 286 -516 286 -516 278 -516 c 0,16,17
 247 -510 247 -510 193 -495.5 c 128,-1,18
 139 -481 139 -481 112 -475 c 0,19,20
 106 -475 106 -475 106 -469 c 0,21,22
 121 -264 121 -264 121 14 c 0,23,24
 121 76 121 76 120 141 c 0,25,26
 120 799 120 799 124 965 c 0,27,28
 124 971 124 971 133 971 c 0,29,30
 280 967 280 967 344 967 c 0,31,32
 352 967 352 967 352 958 c 0,33,34
 342 803 342 803 339 735 c 0,35,36
 339 728 339 728 345 728 c 0,37,38
 347 728 347 728 350 729 c 0,39,40
 432 774 432 774 540 774 c 0,41,42
 698 774 698 774 789 660.5 c 128,-1,43
 880 547 880 547 880 391 c 0,0,1
665 377 m 0,44,45
 665 457 665 457 622 515 c 128,-1,46
 579 573 579 573 505 573 c 0,47,48
 389 573 389 573 344 492 c 1,49,-1
 339 473 l 1,50,51
 331 303 331 303 331 289 c 0,52,53
 333 242 333 242 388.5 213 c 128,-1,54
 444 184 444 184 499 184 c 0,55,56
 577 184 577 184 621 241.5 c 128,-1,57
 665 299 665 299 665 377 c 0,44,45
EndSplineSet
Validated: 1
EndChar

StartChar: q
Encoding: 113 113 75
Width: 878
Flags: W
LayerCount: 2
Fore
SplineSet
907 -369 m 0,0,1
 894 -446 894 -446 878 -526 c 0,2,3
 876 -537 876 -537 853 -537 c 0,4,5
 694 -537 694 -537 613 -436.5 c 128,-1,6
 532 -336 532 -336 532 -168 c 0,7,8
 532 -158 532 -158 534 -87 c 128,-1,9
 536 -16 536 -16 536 14 c 0,10,11
 536 23 536 23 528 23 c 0,12,13
 479 16 479 16 442 16 c 0,14,15
 286 16 286 16 178.5 128 c 128,-1,16
 71 240 71 240 71 414 c 0,17,18
 71 780 71 780 376 831 c 0,19,20
 396 835 396 835 418 835 c 0,21,22
 489 835 489 835 575 793 c 0,23,24
 578 790 578 790 581 790 c 0,25,26
 585 790 585 790 587 797 c 0,27,28
 595 879 595 879 601 924 c 0,29,30
 601 930 601 930 608 930 c 0,31,32
 624 930 624 930 659 932 c 128,-1,33
 694 934 694 934 736 937 c 128,-1,34
 778 940 778 940 790 940 c 0,35,36
 798 940 798 940 798 932 c 0,37,38
 769 690 769 690 751 377 c 0,39,40
 733 101 733 101 733 -139 c 2,41,-1
 733 -207 l 2,42,43
 733 -268 733 -268 765.5 -318.5 c 128,-1,44
 798 -369 798 -369 849 -369 c 0,45,46
 876 -369 876 -369 898 -360 c 0,47,48
 899 -359 899 -359 901 -359 c 256,49,50
 903 -359 903 -359 905 -361 c 0,51,52
 907 -365 907 -365 907 -369 c 0,0,1
569 553 m 0,53,54
 569 569 569 569 558 586 c 0,55,56
 524 629 524 629 446 629 c 256,57,58
 368 629 368 629 324 562.5 c 128,-1,59
 280 496 280 496 280 414 c 0,60,61
 280 326 280 326 326 254 c 128,-1,62
 372 182 372 182 448 182 c 0,63,64
 487 182 487 182 526 197 c 0,65,66
 540 201 540 201 544 206 c 128,-1,67
 548 211 548 211 550 223 c 0,68,69
 569 500 569 500 569 553 c 0,53,54
EndSplineSet
Validated: 1
EndChar

StartChar: r
Encoding: 114 114 76
Width: 679
Flags: W
LayerCount: 2
Fore
SplineSet
655 784 m 0,0,1
 649 743 649 743 631.5 667.5 c 128,-1,2
 614 592 614 592 610 571 c 0,3,4
 610 567 610 567 606 565 c 0,5,6
 605 564 605 564 603 564 c 256,7,8
 601 564 601 564 600 567 c 0,9,10
 520 618 520 618 446 618 c 0,11,12
 366 618 366 618 323 535 c 0,13,14
 321 530 321 530 321 514 c 0,15,16
 325 461 325 461 336.5 375 c 128,-1,17
 348 289 348 289 363 183.5 c 128,-1,18
 378 78 378 78 385 31 c 0,19,20
 386 29 386 29 386 27 c 0,21,22
 386 23 386 23 378 23 c 0,23,24
 340 16 340 16 269 5 c 128,-1,25
 198 -6 198 -6 159 -14 c 0,26,27
 151 -14 151 -14 151 -6 c 0,28,29
 102 778 102 778 102 785 c 0,30,31
 102 791 102 791 108 793 c 0,32,33
 127 799 127 799 243 821 c 0,34,35
 252 821 252 821 252 815 c 2,36,-1
 266 733 l 2,37,38
 269 727 269 727 273 727 c 0,39,40
 275 727 275 727 278 729 c 0,41,42
 317 770 317 770 379.5 795.5 c 128,-1,43
 442 821 442 821 499 821 c 0,44,45
 573 821 573 821 651 793 c 0,46,47
 655 793 655 793 655 784 c 0,0,1
EndSplineSet
Validated: 1
EndChar

StartChar: s
Encoding: 115 115 77
Width: 731
Flags: W
LayerCount: 2
Fore
SplineSet
667 203 m 0,0,1
 667 86 667 86 556.5 22.5 c 128,-1,2
 446 -41 446 -41 315 -41 c 0,3,4
 165 -41 165 -41 71 29 c 0,5,6
 68 32 68 32 68 34 c 256,7,8
 68 36 68 36 69 37 c 0,9,10
 79 66 79 66 99.5 120 c 128,-1,11
 120 174 120 174 130 201 c 0,12,13
 132 205 132 205 135 205 c 256,14,15
 138 205 138 205 141 203 c 0,16,17
 270 133 270 133 333 133 c 0,18,19
 374 133 374 133 411 153.5 c 128,-1,20
 448 174 448 174 448 217 c 0,21,22
 448 254 448 254 415 278.5 c 128,-1,23
 382 303 382 303 316.5 323.5 c 128,-1,24
 251 344 251 344 247 346 c 0,25,26
 180 377 180 377 143 440.5 c 128,-1,27
 106 504 106 504 106 582 c 0,28,29
 106 700 106 700 197 774 c 128,-1,30
 288 848 288 848 413 848 c 0,31,32
 526 848 526 848 630 782 c 0,33,34
 632 780 632 780 632 772 c 0,35,36
 620 745 620 745 593.5 693 c 128,-1,37
 567 641 567 641 552 614 c 0,38,39
 548 610 548 610 546 610 c 256,40,41
 544 610 544 610 542 612 c 0,42,43
 464 653 464 653 413 653 c 0,44,45
 374 653 374 653 338.5 629.5 c 128,-1,46
 303 606 303 606 303 571 c 0,47,48
 303 512 303 512 343 489 c 0,49,50
 352 485 352 485 446 440 c 0,51,52
 499 416 499 416 527.5 401.5 c 128,-1,53
 556 387 556 387 594 358.5 c 128,-1,54
 632 330 632 330 649.5 291 c 128,-1,55
 667 252 667 252 667 203 c 0,0,1
EndSplineSet
Validated: 1
EndChar

StartChar: t
Encoding: 116 116 78
Width: 706
Flags: W
LayerCount: 2
Fore
SplineSet
657 580 m 2,0,1
 657 573 657 573 651 573 c 0,2,3
 620 567 620 567 564 567 c 256,4,5
 508 567 508 567 481 563 c 0,6,7
 471 561 471 561 471 543 c 0,8,9
 477 440 477 440 487 233.5 c 128,-1,10
 497 27 497 27 502 -35 c 0,11,12
 502 -43 502 -43 495 -43 c 0,13,14
 377 -59 377 -59 301 -66 c 1,15,-1
 299 -66 l 2,16,17
 289 -66 289 -66 289 -45 c 0,18,19
 289 -37 289 -37 288 -8.5 c 128,-1,20
 287 20 287 20 287 23 c 0,21,22
 287 80 287 80 268 528 c 0,23,24
 268 535 268 535 260 535 c 0,25,26
 221 532 221 532 152.5 524 c 128,-1,27
 84 516 84 516 69 514 c 0,28,29
 67 513 67 513 65 513 c 0,30,31
 61 513 61 513 61 520 c 0,32,33
 59 549 59 549 56 609.5 c 128,-1,34
 53 670 53 670 51 698 c 0,35,36
 51 707 51 707 57 707 c 0,37,38
 90 713 90 713 153.5 720 c 128,-1,39
 217 727 217 727 250 733 c 0,40,41
 256 733 256 733 256 741 c 0,42,43
 252 821 252 821 244.5 946 c 128,-1,44
 237 1071 237 1071 233 1143 c 0,45,46
 233 1149 233 1149 237 1149 c 0,47,48
 370 1194 370 1194 477 1219 c 0,49,50
 479 1220 479 1220 481 1220 c 0,51,52
 485 1220 485 1220 485 1212 c 0,53,54
 471 999 471 999 471 764 c 0,55,56
 471 756 471 756 477 756 c 0,57,58
 508 756 508 756 647 766 c 0,59,60
 649 767 649 767 651 767 c 0,61,62
 655 767 655 767 655 760 c 0,63,64
 655 756 655 756 656 713 c 128,-1,65
 657 670 657 670 657 637 c 2,66,-1
 657 580 l 2,0,1
EndSplineSet
Validated: 1
EndChar

StartChar: u
Encoding: 117 117 79
Width: 821
Flags: W
LayerCount: 2
Fore
SplineSet
742 481 m 1,0,1
 742 395 742 395 736 328.5 c 128,-1,2
 730 262 730 262 708.5 184 c 128,-1,3
 687 106 687 106 652.5 56 c 128,-1,4
 618 6 618 6 554.5 -28.5 c 128,-1,5
 491 -63 491 -63 405 -63 c 0,6,7
 310 -63 310 -63 244.5 -12 c 128,-1,8
 179 39 179 39 147.5 131 c 128,-1,9
 116 223 116 223 103.5 311 c 128,-1,10
 91 399 91 399 87 514 c 0,11,12
 85 582 85 582 85 636 c 0,13,14
 85 691 85 691 87 733 c 0,15,16
 87 739 87 739 93 739 c 0,17,18
 249 764 249 764 316 780 c 0,19,20
 319 781 319 781 321 781 c 0,21,22
 327 781 327 781 327 772 c 0,23,24
 306 623 306 623 306 455 c 0,25,26
 306 139 306 139 421 139 c 0,27,28
 540 139 540 139 540 481 c 0,29,30
 540 565 540 565 513 786 c 0,31,32
 513 793 513 793 519 793 c 0,33,34
 556 799 556 799 626.5 813 c 128,-1,35
 697 827 697 827 734 836 c 0,36,37
 736 837 736 837 738 837 c 0,38,39
 742 837 742 837 742 829 c 2,40,-1
 745 655 l 2,41,42
 745 481 745 481 742 481 c 1,0,1
EndSplineSet
Validated: 1
EndChar

StartChar: v
Encoding: 118 118 80
Width: 884
Flags: W
LayerCount: 2
Fore
SplineSet
859 745 m 0,0,1
 814 662 814 662 774.5 583 c 128,-1,2
 735 504 735 504 693 413 c 128,-1,3
 651 322 651 322 626 267.5 c 128,-1,4
 601 213 601 213 551 99.5 c 128,-1,5
 501 -14 501 -14 481 -61 c 0,6,7
 474 -79 474 -79 465 -79 c 256,8,9
 456 -79 456 -79 446 -61 c 0,10,11
 165 477 165 477 32 713 c 0,12,13
 31 715 31 715 31 717 c 0,14,15
 31 720 31 720 36 723 c 0,16,17
 106 748 106 748 233 811 c 0,18,19
 235 812 235 812 237 812 c 0,20,21
 240 812 240 812 243 809 c 0,22,23
 296 702 296 702 448 332 c 0,24,25
 451 327 451 327 455 327 c 0,26,27
 458 327 458 327 462 332 c 0,28,29
 487 391 487 391 561.5 598 c 128,-1,30
 636 805 636 805 667 870 c 0,31,32
 669 875 669 875 672 875 c 0,33,34
 674 875 674 875 677 872 c 0,35,36
 714 844 714 844 773.5 808 c 128,-1,37
 833 772 833 772 857 754 c 0,38,39
 861 752 861 752 861 749 c 0,40,41
 861 747 861 747 859 745 c 0,0,1
EndSplineSet
Validated: 1
EndChar

StartChar: w
Encoding: 119 119 81
Width: 1087
Flags: W
LayerCount: 2
Fore
SplineSet
1064 774 m 0,0,1
 950 432 950 432 919 334 c 0,2,3
 905 287 905 287 862 171 c 128,-1,4
 819 55 819 55 800 -8 c 0,5,6
 794 -28 794 -28 785 -28 c 0,7,8
 778 -28 778 -28 769 -12 c 0,9,10
 741 49 741 49 679.5 194.5 c 128,-1,11
 618 340 618 340 587 406 c 0,12,13
 584 411 584 411 581 411 c 0,14,15
 577 411 577 411 573 406 c 0,16,17
 550 352 550 352 484.5 190.5 c 128,-1,18
 419 29 419 29 384 -47 c 0,19,20
 379 -55 379 -55 374 -55 c 256,21,22
 369 -55 369 -55 364 -47 c 0,23,24
 362 -43 362 -43 358 -34 c 128,-1,25
 354 -25 354 -25 352 -20 c 0,26,27
 329 31 329 31 198 335 c 128,-1,28
 67 639 67 639 32 705 c 0,29,30
 30 708 30 708 30 711 c 256,31,32
 30 714 30 714 34 715 c 0,33,34
 91 745 91 745 221 834 c 0,35,36
 223 835 223 835 225 835 c 0,37,38
 230 835 230 835 231 829 c 0,39,40
 249 786 249 786 299.5 629.5 c 128,-1,41
 350 473 350 473 376 403 c 0,42,43
 378 397 378 397 382 397 c 0,44,45
 384 397 384 397 388 401 c 0,46,47
 452 561 452 561 550 885 c 0,48,49
 552 895 552 895 563 896 c 2,50,-1
 565 896 l 2,51,52
 573 896 573 896 577 889 c 0,53,54
 606 836 606 836 671 672 c 0,55,56
 681 643 681 643 708 571.5 c 128,-1,57
 735 500 735 500 749 463 c 0,58,59
 751 457 751 457 755 457 c 256,60,61
 759 457 759 457 761 463 c 0,62,63
 786 541 786 541 821.5 670 c 128,-1,64
 857 799 857 799 870 842 c 0,65,66
 870 848 870 848 878 848 c 0,67,68
 909 838 909 838 973.5 814.5 c 128,-1,69
 1038 791 1038 791 1060 782 c 0,70,71
 1065 779 1065 779 1065 777 c 256,72,73
 1065 775 1065 775 1064 774 c 0,0,1
EndSplineSet
Validated: 1
EndChar

StartChar: x
Encoding: 120 120 82
Width: 847
Flags: W
LayerCount: 2
Fore
SplineSet
808 727 m 0,0,1
 812 723 812 723 812 719 c 0,2,3
 812 714 812 714 808 709 c 0,4,5
 792 686 792 686 739.5 620.5 c 128,-1,6
 687 555 687 555 631 487.5 c 128,-1,7
 575 420 575 420 569 414 c 0,8,9
 567 412 567 412 567 410 c 256,10,11
 567 408 567 408 569 406 c 0,12,13
 583 389 583 389 636 322.5 c 128,-1,14
 689 256 689 256 726 215 c 128,-1,15
 763 174 763 174 804 139 c 0,16,17
 806 137 806 137 806 135 c 0,18,19
 806 132 806 132 804 129 c 0,20,21
 798 121 798 121 667 -43 c 0,22,23
 664 -44 664 -44 661 -44 c 256,24,25
 658 -44 658 -44 655 -43 c 0,26,27
 610 6 610 6 554 76 c 0,28,29
 534 102 534 102 492 154.5 c 128,-1,30
 450 207 450 207 435 223 c 0,31,32
 433 225 433 225 430 225 c 256,33,34
 427 225 427 225 425 223 c 0,35,36
 411 207 411 207 306.5 94.5 c 128,-1,37
 202 -18 202 -18 151 -78 c 0,38,39
 148 -81 148 -81 146 -81 c 0,40,41
 143 -81 143 -81 141 -76 c 0,42,43
 85 20 85 20 63 63 c 0,44,45
 59 70 59 70 49.5 82 c 128,-1,46
 40 94 40 94 36 103 c 0,47,48
 35 105 35 105 35 108 c 0,49,50
 35 114 35 114 40 119 c 0,51,52
 116 190 116 190 317 406 c 0,53,54
 319 408 319 408 319 414 c 0,55,56
 302 438 302 438 221.5 552 c 128,-1,57
 141 666 141 666 98 725 c 0,58,59
 97 727 97 727 97 729 c 0,60,61
 97 733 97 733 100 735 c 0,62,63
 167 801 167 801 249 883 c 0,64,65
 253 887 253 887 255 887 c 0,66,67
 259 887 259 887 261 881 c 0,68,69
 280 848 280 848 313.5 786.5 c 128,-1,70
 347 725 347 725 378 669.5 c 128,-1,71
 409 614 409 614 444 561 c 0,72,73
 446 557 446 557 449 556 c 2,74,-1
 450 556 l 2,75,76
 452 556 452 556 454 559 c 0,77,78
 491 600 491 600 526.5 648 c 128,-1,79
 562 696 562 696 605 759.5 c 128,-1,80
 648 823 648 823 671 854 c 0,81,82
 673 858 673 858 676 859 c 2,83,-1
 677 859 l 2,84,85
 679 859 679 859 681 856 c 0,86,87
 712 819 712 819 739 795 c 0,88,89
 784 750 784 750 808 727 c 0,0,1
EndSplineSet
Validated: 1
EndChar

StartChar: y
Encoding: 121 121 83
Width: 954
Flags: W
LayerCount: 2
Fore
SplineSet
862 72 m 0,0,1
 862 -156 862 -156 752.5 -287 c 128,-1,2
 643 -418 643 -418 424 -418 c 0,3,4
 250 -418 250 -418 106 -281 c 0,5,6
 104 -277 104 -277 104 -275 c 0,7,8
 104 -272 104 -272 106 -270 c 0,9,10
 168 -197 168 -197 223 -102 c 0,11,12
 226 -98 226 -98 229 -98 c 256,13,14
 232 -98 232 -98 235 -102 c 0,15,16
 243 -113 243 -113 260 -137 c 0,17,18
 313 -215 313 -215 428 -215 c 0,19,20
 520 -215 520 -215 587.5 -146.5 c 128,-1,21
 655 -78 655 -78 655 14 c 0,22,23
 655 47 655 47 651 104 c 0,24,25
 651 115 651 115 647 115 c 0,26,27
 645 115 645 115 641 111 c 0,28,29
 569 49 569 49 519 26.5 c 128,-1,30
 469 4 469 4 389 4 c 0,31,32
 258 4 258 4 179 97 c 128,-1,33
 100 190 100 190 100 322 c 0,34,35
 100 426 100 426 143 780 c 0,36,37
 143 786 143 786 151 786 c 2,38,-1
 180 786 l 2,39,40
 293 786 293 786 374 791 c 0,41,42
 383 791 383 791 383 782 c 0,43,44
 379 756 379 756 368.5 706.5 c 128,-1,45
 358 657 358 657 354 637 c 0,46,47
 319 428 319 428 319 377 c 0,48,49
 319 205 319 205 462 205 c 0,50,51
 499 205 499 205 550.5 230.5 c 128,-1,52
 602 256 602 256 626 301 c 0,53,54
 628 311 628 311 628 317 c 0,55,56
 628 336 628 336 625 378 c 128,-1,57
 622 420 622 420 622 422 c 0,58,59
 618 453 618 453 605 598 c 128,-1,60
 592 743 592 743 581 817 c 0,61,62
 581 821 581 821 585 825 c 0,63,64
 620 834 620 834 696 851 c 128,-1,65
 772 868 772 868 800 877 c 0,66,67
 809 877 809 877 809 870 c 0,68,69
 862 420 862 420 862 72 c 0,0,1
EndSplineSet
Validated: 1
EndChar

StartChar: z
Encoding: 122 122 84
Width: 854
Flags: W
LayerCount: 2
Fore
SplineSet
799 774 m 0,0,1
 791 754 791 754 772 727 c 0,2,3
 745 690 745 690 659 570.5 c 128,-1,4
 573 451 573 451 518 370 c 128,-1,5
 463 289 463 289 414 207 c 1,6,-1
 414 204 l 2,7,8
 414 199 414 199 420 197 c 0,9,10
 602 223 602 223 643 223 c 0,11,12
 727 223 727 223 778 217 c 0,13,14
 785 214 785 214 785 210 c 0,15,16
 785 209 785 209 784 207 c 0,17,18
 772 170 772 170 761 102.5 c 128,-1,19
 750 35 750 35 741 6 c 0,20,21
 737 2 737 2 733 2 c 0,22,23
 688 8 688 8 500 8 c 0,24,25
 424 8 424 8 361.5 2 c 128,-1,26
 299 -4 299 -4 204 -18.5 c 128,-1,27
 109 -33 109 -33 55 -39 c 0,28,29
 46 -39 46 -39 46 -33 c 0,30,31
 46 -31 46 -31 47 -29 c 0,32,33
 102 74 102 74 167.5 172 c 128,-1,34
 233 270 233 270 342 418.5 c 128,-1,35
 451 567 451 567 479 608 c 0,36,37
 482 613 482 613 482 616 c 0,38,39
 482 621 482 621 473 621 c 0,40,41
 422 618 422 618 342 610 c 0,42,43
 205 594 205 594 125 588 c 0,44,45
 117 588 117 588 117 594 c 2,46,-1
 86 821 l 1,47,-1
 86 824 l 2,48,49
 86 829 86 829 94 829 c 0,50,51
 156 823 156 823 433.5 811 c 128,-1,52
 711 799 711 799 788 791 c 0,53,54
 801 791 801 791 801 783 c 0,55,56
 801 779 801 779 799 774 c 0,0,1
EndSplineSet
Validated: 1
EndChar

StartChar: trademark
Encoding: 8482 8482 85
Width: 962
Flags: W
LayerCount: 2
Fore
SplineSet
455 1367 m 0,0,1
 451 1322 451 1322 444 1250 c 0,2,3
 444 1248 444 1248 442 1248 c 0,4,5
 429 1247 429 1247 368 1245.5 c 128,-1,6
 307 1244 307 1244 294 1244 c 0,7,8
 292 1244 292 1244 292 1240 c 0,9,10
 294 1217 294 1217 335 856 c 0,11,12
 335 852 335 852 332 852 c 0,13,14
 322 852 322 852 303 853 c 128,-1,15
 284 854 284 854 274 854 c 2,16,-1
 218 854 l 2,17,18
 215 854 215 854 215 857 c 0,19,20
 213 895 213 895 211 942 c 128,-1,21
 209 989 209 989 207 1026 c 0,22,23
 206 1052 206 1052 204.5 1129.5 c 128,-1,24
 203 1207 203 1207 201 1243 c 0,25,26
 201 1247 201 1247 197 1247 c 0,27,28
 192 1247 192 1247 165 1246.5 c 128,-1,29
 138 1246 138 1246 127 1246 c 0,30,31
 106 1246 106 1246 76 1243 c 0,32,33
 72 1243 72 1243 72 1247 c 2,34,-1
 72 1267 l 2,35,36
 72 1277 72 1277 71.5 1284 c 128,-1,37
 71 1291 71 1291 71 1293 c 2,38,-1
 68 1322 l 2,39,40
 68 1326 68 1326 71 1326 c 0,41,42
 204 1341 204 1341 451 1371 c 0,43,44
 455 1371 455 1371 455 1367 c 0,0,1
878 865 m 0,45,46
 878 862 878 862 875 862 c 0,47,48
 851 860 851 860 770 853 c 1,49,-1
 769 853 l 2,50,51
 767 853 767 853 767 856 c 0,52,53
 775 964 775 964 775 1081 c 0,54,55
 775 1084 775 1084 774 1085 c 2,56,-1
 773 1085 l 2,57,58
 772 1085 772 1085 770 1082 c 0,59,60
 731 1022 731 1022 697 966 c 0,61,62
 696 963 696 963 695 963 c 256,63,64
 694 963 694 963 692 966 c 0,65,66
 683 977 683 977 598 1100 c 0,67,68
 597 1101 597 1101 595 1101 c 2,69,-1
 594 1101 l 2,70,71
 592 1100 592 1100 592 1098 c 0,72,73
 587 949 587 949 584 862 c 0,74,75
 584 859 584 859 582 859 c 0,76,77
 564 855 564 855 530 852 c 0,78,79
 527 852 527 852 507 849 c 128,-1,80
 487 846 487 846 474 845 c 0,81,82
 470 845 470 845 470 848 c 0,83,84
 476 932 476 932 520 1376 c 0,85,86
 521 1381 521 1381 523 1381 c 256,87,88
 525 1381 525 1381 527 1377 c 0,89,90
 582 1284 582 1284 618 1230 c 0,91,92
 637 1202 637 1202 695 1110 c 0,93,94
 697 1108 697 1108 698 1108 c 0,95,96
 700 1108 700 1108 701 1110 c 0,97,98
 705 1117 705 1117 748 1197 c 0,99,100
 762 1226 762 1226 795.5 1290 c 128,-1,101
 829 1354 829 1354 841 1378 c 0,102,103
 841 1379 841 1379 843 1382 c 128,-1,104
 845 1385 845 1385 846.5 1387.5 c 128,-1,105
 848 1390 848 1390 850 1390 c 0,106,107
 853 1390 853 1390 854.5 1387 c 128,-1,108
 856 1384 856 1384 856 1380 c 2,109,-1
 856 1376 l 2,110,111
 856 1375 856 1375 858.5 1321.5 c 128,-1,112
 861 1268 861 1268 863 1203 c 128,-1,113
 865 1138 865 1138 866 1112 c 0,114,115
 868 1007 868 1007 878 865 c 0,45,46
EndSplineSet
Validated: 1
EndChar
